<svg width="665" height="354" viewBox="0 0 665 354" fill="none" xmlns="http://www.w3.org/2000/svg">
<path d="M513.891 339.07C509.131 345.163 503.609 349.923 504.752 352.018C504.752 352.018 507.227 353.922 514.272 353.922C526.267 353.922 538.071 352.97 536.167 351.827C533.502 350.114 525.696 349.542 518.27 346.877C516.366 346.306 522.268 342.688 520.745 342.117C517.318 340.784 514.843 339.832 513.891 339.07Z" fill="#002E4F"/>
<path d="M637.46 351.635C637.46 351.635 638.984 353.92 645.076 353.92C655.548 353.92 666.211 352.587 664.688 351.445C662.403 349.921 644.124 346.113 644.124 346.113L640.126 340.973L633.271 344.781L637.46 351.635Z" fill="#002E4F"/>
<path d="M604.711 198.745C597.285 198.745 591.573 197.222 591.193 197.222C587.385 196.08 585.1 192.081 586.052 188.273C587.194 184.465 591.193 182.18 595.001 183.132C595.191 183.132 611.565 187.321 621.276 179.134C627.749 173.612 630.034 163.331 628.511 148.289L627.94 143.529L642.601 135.152C646.028 133.248 650.597 134.39 652.501 137.817C654.405 141.244 653.263 145.814 649.836 147.718L643.362 151.336C644.314 168.852 640.125 181.8 630.605 189.987C622.609 197.032 612.517 198.745 604.711 198.745Z" fill="#FFDE81"/>
<path d="M629.844 158.191C629.653 168.854 626.797 176.47 621.466 181.039C610.994 189.988 593.096 185.419 592.716 185.419C588.527 184.276 584.148 186.751 583.005 191.131C581.863 195.319 584.338 199.699 588.527 201.031C589.098 201.222 595.191 204.268 603.378 203.887C634.413 202.745 653.072 176.089 653.453 160.476L629.844 158.191Z" fill="#E1F3F6"/>
<path d="M587.195 121.061C584.339 119.728 581.673 118.395 579.007 117.062C553.303 131.723 520.555 150.383 519.793 151.144C519.793 151.144 536.167 177.038 537.119 178.181C537.881 178.942 578.246 149.811 607.377 128.867C600.713 126.202 593.859 124.107 587.195 121.061Z" fill="#FF753A"/>
<path d="M587.574 120.299C594.238 123.345 601.283 125.439 608.137 128.105C624.131 116.491 636.507 107.542 636.507 107.542L609.089 99.9258C609.089 99.9258 595.952 107.351 579.768 116.681C582.433 118.014 585.099 119.156 587.574 120.299Z" fill="#FF753A"/>
<path d="M540.355 86.2189L556.539 130.011L588.146 141.435L548.162 68.5117L540.355 86.2189Z" fill="#F04800"/>
<path d="M589.859 152.289H566.439L587.193 188.465L618.99 201.793L589.859 152.289Z" fill="#F28A00"/>
<path d="M618.992 201.793L600.333 169.997L520.746 216.645L505.133 189.989L515.034 31.3854L550.829 10.4414L615.184 120.112L636.89 107.355L654.978 138.009L633.272 150.766L651.931 182.563L618.992 201.793ZM546.83 78.795L544.736 79.9374L539.214 164.665L582.245 139.342L546.83 78.795Z" fill="#FF5C16"/>
<path d="M478.666 182.941L505.132 190.177L520.744 216.833L492.756 209.788L478.666 182.941Z" fill="#FF753A"/>
<path d="M478.666 182.942L505.132 190.178L515.032 31.5743L490.661 25.6719L478.666 182.942Z" fill="#FF753A"/>
<path d="M490.66 25.6713L515.031 31.5737L550.636 10.6297L526.075 3.39453L490.66 25.6713Z" fill="#FF753A"/>
<path d="M543.973 246.156C543.973 246.156 547.781 288.044 547.781 302.705C547.781 302.705 517.317 326.505 509.701 338.881C512.938 341.356 519.221 344.593 523.41 344.403C543.783 324.982 566.06 311.083 566.06 311.083C566.06 311.083 575.77 283.094 578.626 259.484L543.973 246.156Z" fill="#002E4F"/>
<path d="M565.679 248.059C572.534 248.059 579.579 246.917 585.481 243.68C583.577 235.302 587.766 210.55 593.097 197.413C593.097 197.413 597.286 188.273 594.43 185.417C583.577 174.945 574.247 175.897 571.391 175.707C561.491 184.085 542.831 209.027 543.593 241.776C548.734 247.107 559.015 248.059 565.679 248.059Z" fill="#E1F3F6"/>
<path d="M632.89 345.924C636.889 344.782 640.697 343.068 643.172 339.641C631.367 320.601 588.146 250.344 585.862 244.822C585.862 244.632 585.671 244.441 585.671 244.441C579.388 247.868 571.772 249.011 564.346 248.82C557.873 248.63 548.734 247.678 543.402 242.918C543.402 243.299 543.402 243.68 543.402 243.87C544.354 262.148 605.092 323.267 629.082 346.686C630.605 346.686 631.748 346.305 632.89 345.924Z" fill="#00396A"/>
<path d="M507.416 229.02C505.702 229.02 504.179 228.829 502.465 228.258C499.229 227.116 495.04 224.45 492.945 217.786C491.803 213.978 494.088 209.789 497.896 208.647C501.704 207.505 505.893 209.789 507.035 213.597C507.226 213.978 507.225 214.359 507.416 214.549C508.177 214.549 511.033 214.359 518.078 210.17C524.361 206.553 531.787 201.031 539.022 195.7C551.208 186.751 562.632 178.183 572.152 175.327C575.96 174.185 580.149 176.279 581.291 180.087C582.433 183.895 580.339 188.084 576.531 189.226C569.296 191.511 558.443 199.698 547.781 207.505C532.168 218.929 518.459 229.02 507.416 229.02Z" fill="#FFE9AC"/>
<path d="M521.125 223.688C520.173 219.309 519.221 214.74 516.555 211.122C510.653 214.359 508.177 214.549 507.416 214.549C507.416 214.359 507.225 214.168 507.035 213.597C505.893 209.789 501.894 207.504 497.896 208.647C494.088 209.789 491.803 213.788 492.945 217.786C495.04 224.64 499.229 227.306 502.465 228.258C503.989 228.829 505.702 229.02 507.416 229.02C511.605 229.02 516.365 227.496 521.315 225.021C521.315 224.45 521.125 224.069 521.125 223.688Z" fill="#FFDE81"/>
<path d="M581.291 179.896C580.148 176.088 575.96 173.993 572.152 175.136C562.632 178.182 551.208 186.56 539.022 195.508C531.787 200.84 524.361 206.361 518.078 209.979C517.697 210.169 517.507 210.36 517.316 210.36C519.982 213.977 524.742 231.684 524.932 232.065C532.739 228.067 569.676 199.888 577.673 191.32C580.529 188.654 582.433 183.704 581.291 179.896Z" fill="#E1F3F6"/>
<path d="M497.134 223.118C496.754 223.118 496.182 222.928 495.802 222.737C490.09 218.739 487.043 210.742 487.043 210.361C486.662 209.219 487.234 208.076 488.376 207.696C489.518 207.315 490.661 207.886 491.042 209.028C491.042 209.028 493.707 216.073 498.277 219.31C499.229 220.072 499.419 221.404 498.848 222.356C498.467 222.928 497.896 223.118 497.134 223.118Z" fill="#FFDE81"/>
<path d="M497.135 217.974C496.373 217.974 495.802 217.593 495.421 217.022C492.755 213.214 490.471 203.884 490.28 202.932C490.09 201.79 490.661 200.647 491.803 200.267C492.946 200.076 494.088 200.647 494.469 201.79C495.04 204.455 497.135 211.691 499.039 214.356C499.8 215.308 499.419 216.641 498.467 217.403C498.087 217.783 497.706 217.974 497.135 217.974Z" fill="#FFDE81"/>
<path d="M500.182 216.643C499.42 216.643 498.468 216.071 498.278 215.31C496.374 210.55 495.612 200.459 495.422 199.887C495.422 198.745 496.183 197.603 497.326 197.603C498.468 197.412 499.611 198.364 499.611 199.507C499.801 202.172 500.563 209.979 502.086 213.596C502.467 214.739 502.086 215.881 500.943 216.452C500.753 216.643 500.372 216.643 500.182 216.643Z" fill="#FFDE81"/>
<path d="M503.419 215.69C502.467 215.69 501.515 215.119 501.324 214.167C499.992 208.835 501.134 203.504 501.324 203.314C501.515 202.171 502.848 201.41 503.99 201.79C505.132 201.981 505.894 203.123 505.513 204.456C505.513 204.646 504.561 209.026 505.513 213.215C505.894 214.357 505.132 215.499 503.99 215.88C503.8 215.69 503.609 215.69 503.419 215.69Z" fill="#FFDE81"/>
<path d="M589.48 191.51C588.528 191.51 587.576 191.32 586.624 190.939C583.197 189.416 581.673 185.227 583.387 181.8C585.101 178.183 588.147 174.565 588.528 174.184C591.003 171.328 595.382 170.947 598.238 173.423C601.094 175.898 601.475 180.277 599 183.133C598.048 184.085 596.525 186.37 595.763 187.893C594.621 190.178 592.145 191.51 589.48 191.51Z" fill="#FFDE81"/>
<path d="M590.431 188.082C591.193 189.034 592.145 189.796 592.906 190.558C594.049 189.796 595.001 188.844 595.572 187.702C596.333 186.178 597.857 184.084 598.809 182.942C601.284 180.086 600.903 175.706 598.047 173.231C595.191 170.756 590.812 171.137 588.337 173.993C588.146 174.183 587.575 174.754 587.004 175.706C587.004 180.276 587.575 184.846 590.431 188.082Z" fill="#FFE9AC"/>
<path d="M613.089 180.468C610.423 187.132 602.807 190.179 596.143 187.513C589.479 184.847 586.433 177.231 589.098 170.567L592.525 162.19C595.191 155.526 602.807 152.479 609.471 155.145C616.135 157.811 619.181 165.427 616.516 172.091L613.089 180.468Z" fill="#FFDE81"/>
<path d="M590.43 169.614C589.288 173.993 583.005 172.661 580.529 170.376C577.293 167.139 575.198 158.19 582.624 158.571C577.293 150.574 595.19 142.006 597.094 151.145C598.427 148.861 599.95 146.576 602.997 146.385C605.281 146.195 609.089 147.909 608.899 150.765C612.326 148.099 617.086 148.289 620.323 150.955C621.465 151.717 623.369 153.621 622.417 155.144C621.846 155.905 619.181 156.096 618.229 156.477C619.752 155.715 626.225 157.238 624.893 159.904C624.321 161.237 621.275 160.094 620.323 159.713C620.323 159.713 620.323 160.094 620.323 159.904C623.75 161.808 625.083 163.712 624.702 167.901C624.512 169.805 623.56 173.613 621.275 173.803C620.133 173.993 618.8 173.232 618.8 171.899C621.656 174.755 617.657 182.371 614.04 178.563C612.707 177.04 613.278 174.565 614.611 173.422C612.517 172.28 607.947 165.806 611.184 163.902C609.661 163.902 602.616 161.617 604.71 159.523C605.281 161.808 602.425 165.045 599.95 163.712C601.473 166.949 597.094 169.234 594.429 169.424C595.952 171.518 591.001 173.803 589.478 170.947L590.43 169.614Z" fill="#404353"/>
<path d="M346.907 143.716C346.907 143.716 342.718 127.722 363.472 123.914L361.949 143.144L346.907 143.716Z" fill="#FFDE81"/>
<path d="M264.084 184.081C259.514 184.081 255.325 183.129 251.517 181.415C232.858 172.466 230.764 146.001 230.573 144.858C230.383 140.86 233.239 137.433 237.237 137.052C241.236 136.862 244.663 139.718 245.044 143.716C245.425 149.047 248.471 163.898 257.61 168.278C265.226 171.895 276.841 168.278 291.501 157.806C294.738 155.521 299.308 156.282 301.593 159.519C303.877 162.756 303.116 167.326 299.879 169.61C286.551 179.13 274.556 184.081 264.084 184.081Z" fill="#CDE5E8"/>
<path d="M302.925 197.601C305.02 192.269 306.924 186.938 309.018 181.607C307.495 181.417 305.972 181.226 304.639 181.036C297.594 179.703 291.501 176.847 286.741 172.468C281.791 168.089 277.983 162.567 275.317 155.713C272.652 149.049 271.128 141.242 270.748 132.674C270.367 124.106 270.938 114.967 272.842 105.447C274.746 95.7365 277.412 86.9781 281.029 79.1717C284.647 71.3653 288.836 64.8917 293.786 59.5605C298.736 54.2293 304.258 50.4213 310.541 48.1365C316.634 45.8517 323.298 45.4709 330.343 46.8037C335.864 47.9461 340.815 50.0405 345.194 53.0869C347.289 48.8981 349.573 44.8997 351.668 40.9013C354.143 36.1413 356.428 31.1909 358.712 26.4309C359.664 24.3365 360.426 22.2421 361.378 19.9573C354.143 15.9589 346.146 12.9125 337.197 11.1989C324.631 8.72375 312.636 9.29494 301.592 12.5317C290.549 15.7685 280.458 21.4805 271.509 29.2869C262.56 37.0933 254.945 46.8037 248.852 58.6085C242.569 70.4133 238.189 83.5509 235.333 98.0213C232.477 112.492 231.906 126.391 233.239 139.719C234.762 153.047 237.999 164.852 243.52 175.324C248.852 185.796 256.277 194.745 265.416 201.98C273.984 208.644 283.885 213.213 295.5 215.879C297.975 209.977 300.64 203.884 302.925 197.601Z" fill="#FF753A"/>
<path d="M401.553 88.1194C400.03 74.7914 396.793 62.9866 391.271 52.5146C385.94 42.0426 378.514 33.0938 369.566 25.8586C367.09 23.9546 364.615 22.2409 361.759 20.5273C360.998 22.6217 360.046 24.9065 359.094 27.0009C356.809 31.9513 354.524 36.7113 352.049 41.4713C349.954 45.4697 347.67 49.6586 345.575 53.8474C346.337 54.4186 347.098 54.9897 347.67 55.5609C352.62 59.9401 356.428 65.4617 359.094 72.3162C361.95 79.1706 363.473 86.7866 363.854 95.1642C364.234 103.732 363.663 112.871 361.759 122.582C359.855 132.102 357.19 140.86 353.572 148.667C349.954 156.473 345.766 163.137 340.625 168.278C335.484 173.609 329.962 177.417 323.679 179.702C319.11 181.415 314.35 182.177 309.399 181.796C306.924 187.508 305.02 193.411 302.735 199.313C300.641 205.025 298.166 210.737 295.5 216.259C296.071 216.449 296.642 216.449 297.214 216.639C309.78 219.115 321.775 218.543 332.818 215.307C343.862 212.07 353.953 206.358 362.902 198.551C371.85 190.745 379.466 181.035 385.559 169.23C391.842 157.425 396.222 144.287 399.078 129.817C402.314 115.156 403.076 101.447 401.553 88.1194Z" fill="#F04800"/>
<path d="M320.061 224.255C307.494 221.78 296.641 217.02 287.502 209.784C278.363 202.549 271.128 193.791 265.796 183.128C260.465 172.656 257.038 160.661 255.515 147.524C253.992 134.196 254.753 120.487 257.609 105.826C260.465 91.3557 264.844 78.2181 271.128 66.4133C277.411 54.6085 284.836 44.898 293.785 37.0916C302.734 29.2852 312.635 23.7636 323.869 20.3364C334.912 17.0996 346.907 16.5284 359.473 19.0036C372.04 21.4788 382.893 26.2388 392.032 33.474C401.171 40.7092 408.406 49.4677 413.928 60.1301C419.259 70.6021 422.686 82.5973 424.209 95.7349C425.733 109.063 424.971 122.772 422.115 137.432C419.259 151.903 414.88 165.04 408.597 176.845C402.313 188.65 394.888 198.36 385.939 206.167C376.99 213.973 367.089 219.495 355.856 222.922C344.432 226.159 332.627 226.54 320.061 224.255ZM326.915 188.65C333.769 189.983 340.243 189.412 346.526 187.127C352.619 184.842 358.331 181.034 363.472 175.703C368.612 170.372 372.801 163.898 376.419 156.092C380.037 148.285 382.702 139.527 384.606 130.007C386.51 120.296 387.081 111.157 386.701 102.589C386.32 94.0213 384.606 86.4053 381.941 79.7413C379.085 72.8869 375.277 67.3653 370.517 62.9861C365.566 58.6069 359.664 55.7509 352.809 54.4181C345.765 53.0853 339.101 53.466 333.008 55.7509C326.915 58.0356 321.203 61.8437 316.253 67.1749C311.302 72.5061 307.113 78.9797 303.496 86.7861C299.878 94.5925 297.213 103.351 295.309 113.061C293.404 122.581 292.833 131.72 293.214 140.288C293.595 148.856 295.118 156.472 297.784 163.327C300.449 169.991 304.257 175.703 309.208 180.082C313.777 184.461 319.68 187.317 326.915 188.65Z" fill="#FF5C16"/>
<path d="M448.581 117.251L449.152 144.098C449.152 144.098 441.536 150.952 434.682 144.098L437.157 113.824L448.581 117.251Z" fill="#404353"/>
<path d="M416.975 330.88C416.594 330.499 413.548 329.166 413.167 328.785C411.644 331.26 410.502 332.593 408.598 334.497C413.358 338.686 412.025 343.636 412.025 343.636C412.025 343.636 408.598 346.492 407.455 347.064C403.266 349.158 395.65 352.014 395.65 352.014L415.071 353.537L429.351 338.876C424.21 336.02 420.212 333.545 416.975 330.88Z" fill="#002E4F"/>
<path d="M341.195 332.021C338.149 331.45 334.15 333.925 331.675 332.021C331.104 337.353 331.294 340.399 331.294 340.399L302.734 352.204H339.291C339.672 348.396 338.91 344.588 339.482 340.97C339.672 338.876 340.814 333.735 341.195 332.021Z" fill="#002E4F"/>
<path d="M374.515 201.98L342.146 263.48C342.146 263.48 355.284 274.523 368.231 278.331L392.412 205.788L374.515 201.98Z" fill="#CDE5E8"/>
<path d="M409.93 336.023C411.834 334.119 413.547 331.643 415.07 329.168C406.693 321.933 402.694 314.507 391.27 301.941C386.51 296.61 399.077 266.527 402.123 261.386C407.645 252.247 408.406 245.773 412.595 230.16L380.989 241.965C373.373 269.002 364.614 295.848 373.563 308.795C382.893 322.314 399.267 333.357 407.264 338.879C407.454 339.069 409.739 335.832 409.93 336.023Z" fill="#002E4F"/>
<path d="M356.807 140.671C356.427 140.671 355.855 140.481 355.475 140.29C354.523 139.529 354.332 138.196 354.903 137.244C357.379 133.626 357.95 130.77 357.95 130.77C358.14 129.628 359.283 128.866 360.425 129.057C361.567 129.247 362.329 130.389 362.139 131.532C362.139 131.722 361.377 135.34 358.331 139.719C358.14 140.29 357.379 140.671 356.807 140.671Z" fill="#FFDE81"/>
<path d="M410.31 236.822C419.64 210.927 427.827 170.372 430.683 154.188C428.97 153.426 427.446 153.046 426.114 152.665C423.258 151.903 420.021 150.951 417.165 151.903C415.642 152.284 414.499 153.046 413.166 153.807C412.024 157.234 411.453 160.281 411.453 160.281C411.453 160.281 391.27 198.932 378.133 225.207C389.366 227.873 400.219 231.49 410.31 236.822Z" fill="#F6EE9E"/>
<path d="M377.752 226.16C376.61 228.445 375.467 230.73 374.515 232.824C371.85 237.394 369.184 241.583 366.519 245.771C340.434 284.994 330.723 316.219 329.01 331.071C331.485 332.975 340.815 334.117 344.051 334.688C348.811 310.127 361.378 294.514 383.655 276.045C391.08 269.952 396.792 261.955 401.743 255.482C404.599 251.674 407.645 245.391 410.311 237.775C399.839 232.253 388.986 228.635 377.752 226.16Z" fill="#00396A"/>
<path d="M352.429 237.013C349.382 237.013 346.526 235.109 345.574 232.062C344.241 228.254 346.336 224.066 350.144 222.733C358.902 219.686 372.611 207.501 381.75 194.554C400.219 168.278 413.357 153.618 413.928 153.046C416.593 150 421.163 149.81 424.209 152.475C427.256 155.141 427.446 159.71 424.781 162.757C424.59 162.947 411.643 177.418 393.745 202.931C384.797 215.688 368.803 231.682 355.094 236.442C354.142 236.822 353.381 237.013 352.429 237.013Z" fill="#FFDE81"/>
<path d="M425.732 156.665C425.542 156.665 425.351 156.665 425.161 156.665C421.353 156.475 418.497 153.047 418.878 149.239C419.259 145.241 420.782 140.862 420.782 140.291C421.924 136.673 425.923 134.769 429.54 136.102C433.158 137.244 435.062 141.243 433.729 144.86C433.348 146.193 432.587 148.668 432.396 150.382C432.206 153.999 429.159 156.665 425.732 156.665Z" fill="#FFDE81"/>
<path d="M427.636 149.43C428.778 150.763 430.111 152.096 431.634 153.238C432.205 152.286 432.396 151.334 432.586 150.382C432.777 148.669 433.348 146.194 433.919 144.861C435.061 141.243 433.157 137.435 429.73 136.102C426.684 135.15 423.637 136.293 421.924 138.578C422.305 142.576 425.541 146.955 427.636 149.43Z" fill="#FFE9AC"/>
<path d="M445.345 134.578C445.154 141.813 439.252 147.334 432.017 147.334C424.781 147.144 419.26 141.242 419.26 134.006L419.45 125.058C419.641 117.822 425.543 112.301 432.778 112.301C440.013 112.491 445.535 118.394 445.535 125.629L445.345 134.578Z" fill="#FFDE81"/>
<path d="M342.147 234.917C339.1 234.917 335.673 234.156 331.865 232.442C330.723 232.061 330.342 230.728 330.723 229.586C331.104 228.444 332.436 228.063 333.579 228.444C339.291 230.728 343.67 231.109 346.526 229.396C347.478 228.824 348.811 229.015 349.382 230.157C349.953 231.109 349.763 232.442 348.62 233.013C346.907 234.346 344.812 234.917 342.147 234.917Z" fill="#FFDE81"/>
<path d="M344.812 237.963C341.385 237.963 338.719 237.392 335.482 236.631L334.53 236.44C333.388 236.25 332.626 234.917 333.007 233.775C333.198 232.632 334.53 231.871 335.673 232.251L336.625 232.442C341.766 233.775 345.193 234.536 352.809 232.632C353.951 232.251 355.094 233.013 355.474 234.155C355.855 235.298 355.094 236.44 353.951 236.821C350.143 237.583 347.287 237.963 344.812 237.963Z" fill="#FFDE81"/>
<path d="M342.147 230.728C335.483 230.728 330.723 226.539 330.533 226.349C329.581 225.587 329.581 224.254 330.342 223.302C331.104 222.35 332.437 222.35 333.389 223.112C333.579 223.302 338.53 227.681 345.194 225.968C346.336 225.587 347.478 226.349 347.859 227.491C348.24 228.633 347.478 229.776 346.336 230.157C344.813 230.537 343.29 230.728 342.147 230.728Z" fill="#FFDE81"/>
<path d="M346.526 228.443H346.336C339.101 227.681 336.054 222.35 335.864 222.16C335.293 221.208 335.674 219.875 336.626 219.304C337.578 218.732 338.91 219.113 339.482 220.065C339.672 220.256 341.576 223.683 346.526 224.254C347.669 224.444 348.621 225.396 348.43 226.539C348.621 227.491 347.669 228.443 346.526 228.443Z" fill="#FFDE81"/>
<path d="M372.23 143.717C372.039 143.717 372.039 143.717 371.849 143.717C368.231 143.146 358.521 141.622 356.426 141.622C355.284 141.622 354.332 140.67 354.332 139.528C354.332 138.386 355.284 137.434 356.426 137.434C359.473 137.434 371.278 139.338 372.61 139.528C373.753 139.718 374.514 140.861 374.324 142.003C374.134 142.955 373.182 143.717 372.23 143.717Z" fill="#FFDE81"/>
<path d="M370.707 148.285C370.517 148.285 370.326 148.285 370.136 148.285C369.946 148.285 359.854 145.429 355.094 145.239C353.952 145.239 353 144.096 353 142.954C353 141.811 354.142 140.859 355.285 140.859C360.426 141.24 370.707 143.906 371.278 144.096C372.421 144.477 373.182 145.619 372.802 146.762C372.611 147.523 371.659 148.285 370.707 148.285Z" fill="#FFDE81"/>
<path d="M369.755 152.857C369.564 152.857 369.374 152.857 369.183 152.667C359.473 149.621 357.188 149.43 355.855 149.24C355.284 149.24 354.713 149.24 354.142 149.05C352.999 148.669 352.238 147.526 352.619 146.384C352.999 145.242 354.142 144.48 355.284 144.861C355.665 144.861 355.855 145.051 356.236 145.051C357.759 145.242 360.425 145.432 370.516 148.669C371.659 149.05 372.23 150.192 371.849 151.334C371.468 152.286 370.707 152.857 369.755 152.857Z" fill="#FFDE81"/>
<path d="M365.567 156.284C365.376 156.284 365.376 156.284 365.567 156.284C355.666 155.523 355.285 150.382 355.285 149.81L359.664 149.62C359.664 149.62 359.664 149.62 359.664 149.43C359.664 149.43 360.045 151.524 365.757 151.905C366.9 151.905 367.852 153.047 367.661 154.19C367.661 155.523 366.709 156.284 365.567 156.284Z" fill="#FFDE81"/>
<path d="M357.379 153.809C357.379 153.809 355.475 152.857 352.619 152.857C350.144 152.857 346.907 148.669 346.907 144.48C346.907 144.48 345.765 131.913 359.093 137.625L357.379 153.809Z" fill="#FFDE81"/>
<path d="M399.458 191.318L380.799 283.471C380.799 283.471 409.74 290.516 427.637 280.235L432.207 152.095C432.016 152.286 412.215 145.241 399.458 191.318Z" fill="#CDE5E8"/>
<path d="M403.837 242.155L421.734 241.203C421.734 241.203 422.115 268.621 411.453 267.478C411.453 267.478 396.792 270.715 403.837 242.155Z" fill="#E1F3F6"/>
<path d="M426.303 150.002C424.399 148.288 421.734 147.336 419.068 147.336C416.022 147.336 413.166 148.669 411.071 150.954C410.5 151.525 397.362 166.186 378.703 192.841C377.561 194.555 376.038 196.269 374.705 198.173L372.801 200.457L374.895 202.552C377.18 204.837 379.465 207.121 381.75 209.406C382.892 210.549 384.225 211.881 385.367 213.024L388.033 215.689L390.508 212.833C392.602 210.358 394.697 207.693 396.41 205.217C414.308 179.894 427.065 165.424 427.255 165.424C431.063 160.854 430.682 154 426.303 150.002Z" fill="#E1F3F6"/>
<path d="M377.208 191.985L369.955 200.059L388.793 216.982L396.046 208.909L377.208 191.985Z" fill="#F8FDFF"/>
<path d="M406.502 139.72L423.067 146.193C423.067 146.193 430.112 112.112 424.971 106.971C424.78 106.971 406.502 105.257 406.502 139.72Z" fill="#404353"/>
<path d="M425.733 112.872C426.304 113.824 439.061 122.202 449.152 119.917C449.152 119.917 447.439 104.875 424.02 106.97L425.733 112.872Z" fill="#404353"/>
<path d="M435.634 129.056C435.634 133.054 432.398 136.291 428.399 136.291C424.401 136.291 421.164 133.054 421.164 129.056C421.164 125.057 424.401 121.82 428.399 121.82C432.398 121.82 435.634 125.057 435.634 129.056Z" stroke="#F28A00" stroke-width="0.8679" stroke-miterlimit="10"/>
<path d="M451.818 130.389C451.818 133.816 448.962 136.672 445.535 136.672C442.108 136.672 439.252 133.816 439.252 130.389C439.252 126.961 442.108 124.105 445.535 124.105C448.962 124.105 451.818 126.961 451.818 130.389Z" stroke="#F28A00" stroke-width="0.755" stroke-miterlimit="10"/>
<path d="M435.633 129.056C435.633 129.056 437.918 128.104 439.441 129.627" stroke="#F28A00" stroke-width="0.8679" stroke-miterlimit="10"/>
<path d="M227.146 141.622C226.956 141.622 226.765 141.622 226.575 141.622C222.767 141.432 219.911 138.004 220.292 134.196C220.673 130.198 222.196 125.819 222.196 125.248C223.338 121.63 227.337 119.726 230.954 121.059C234.572 122.201 236.476 126.2 235.143 129.817C234.762 131.15 234.001 133.625 233.81 135.339C233.62 138.766 230.764 141.622 227.146 141.622Z" fill="#FFDE81"/>
<path d="M223.148 331.832C234.572 337.163 243.902 336.973 244.664 337.163C252.089 324.026 274.366 288.23 253.993 259.099L225.243 243.677C225.243 243.486 253.993 273.569 223.148 331.832Z" fill="#002E4F"/>
<path d="M237.998 343.64C237.998 343.64 240.664 338.309 242.758 334.691C241.235 334.501 234.19 334.31 231.334 333.168C228.668 338.69 222.766 346.686 218.768 352.208H257.419L237.998 343.64Z" fill="#002E4F"/>
<path d="M285.598 260.624C280.838 251.294 245.995 223.305 242.758 207.121C242.568 205.789 242.187 204.265 241.996 202.742C236.475 205.789 229.049 206.55 223.337 206.741C216.864 207.121 212.865 207.502 206.582 204.456C207.153 214.357 205.44 224.067 211.342 234.158C222.956 254.341 261.417 271.477 265.606 278.141C273.984 291.278 277.03 319.648 279.886 336.974C284.456 336.974 295.118 336.784 299.497 335.26C298.164 326.502 300.64 289.945 285.598 260.624Z" fill="#00396A"/>
<path d="M297.594 341.926C297.594 341.926 296.261 336.785 295.88 334.5C291.501 336.023 288.835 334.5 284.266 334.5C285.027 338.879 284.456 346.876 284.837 351.636H321.394L297.594 341.926Z" fill="#002E4F"/>
<path d="M223.719 212.262C229.241 212.072 241.045 210.549 245.615 205.789C244.663 198.173 241.236 185.797 242.378 175.896C246.377 142.385 230.002 132.294 230.002 132.294C230.002 132.294 222.386 126.963 216.293 133.246C207.154 142.766 198.015 169.613 198.967 209.216C205.631 212.453 217.055 212.453 223.719 212.262Z" fill="#CDE5E8"/>
<path d="M307.876 222.732C307.305 222.732 306.734 222.732 306.162 222.542C279.697 216.449 257.42 200.646 241.426 176.846C229.431 158.948 225.433 142.955 225.242 142.384C224.29 138.576 226.575 134.577 230.574 133.625C234.382 132.673 238.38 134.958 239.332 138.956C239.332 139.337 243.14 153.617 253.802 169.42C267.702 190.174 286.551 203.312 309.399 208.643C313.398 209.595 315.682 213.403 314.921 217.401C314.159 220.448 311.113 222.732 307.876 222.732Z" fill="#FFDE81"/>
<path d="M291.691 200.838C277.221 193.984 264.845 182.94 254.944 168.279C244.472 152.667 240.664 138.387 240.664 138.196C239.712 134.388 236.285 131.723 232.287 131.723C231.525 131.723 230.954 131.723 230.192 131.913C227.907 132.484 226.194 133.817 224.861 135.911C223.719 137.815 223.338 140.1 223.909 142.385V142.575C225.051 147.526 229.621 164.662 240.283 180.846C253.04 200.076 270.557 214.356 290.549 222.353C290.739 222.353 290.93 222.353 290.93 222.353C291.12 222.353 291.501 222.353 291.691 222.163C292.072 221.972 292.263 221.591 292.263 221.02V201.79C292.453 201.6 292.263 201.028 291.691 200.838Z" fill="#E1F3F6"/>
<path d="M313.207 223.303C310.923 223.303 308.447 223.113 305.782 222.542C304.639 222.351 303.878 221.209 304.068 220.067C304.259 218.924 305.401 218.163 306.543 218.353C313.017 219.686 318.158 219.115 322.347 217.02C323.299 216.449 324.631 216.83 325.203 217.972C325.774 218.924 325.393 220.257 324.251 220.828C321.204 222.351 317.396 223.303 313.207 223.303Z" fill="#FFDE81"/>
<path d="M313.587 218.547C312.635 218.547 311.493 218.546 310.541 218.356C309.398 218.166 308.637 217.023 308.637 215.881C308.827 214.739 309.97 213.977 311.112 213.977C317.966 214.929 324.25 211.502 324.44 211.311C325.392 210.74 326.725 211.121 327.296 212.073C327.867 213.025 327.486 214.358 326.534 214.929C326.154 215.31 320.442 218.547 313.587 218.547Z" fill="#FFDE81"/>
<path d="M311.683 214.355C311.302 214.355 310.922 214.355 310.731 214.355C309.589 214.355 308.637 213.213 308.637 212.071C308.637 210.928 309.779 209.976 310.922 209.976C316.062 210.357 318.728 207.12 318.728 207.12C319.49 206.168 320.822 205.978 321.774 206.739C322.726 207.501 322.917 208.834 322.155 209.786C321.774 209.976 318.347 214.355 311.683 214.355Z" fill="#FFDE81"/>
<path d="M304.258 210.738C303.116 210.738 302.164 209.786 302.164 208.644C302.164 207.501 303.116 206.549 304.258 206.549C304.449 206.549 308.638 206.359 311.113 202.932C311.874 201.98 313.207 201.789 314.159 202.36C315.111 203.122 315.302 204.455 314.73 205.407C310.922 210.548 304.449 210.738 304.258 210.738Z" fill="#FFDE81"/>
<path d="M297.213 162.378C296.451 162.378 295.88 161.997 295.499 161.426C292.262 157.047 291.691 153.239 291.691 153.239C291.501 152.096 292.262 150.954 293.405 150.764C294.547 150.573 295.69 151.335 295.88 152.477C295.88 152.477 296.451 155.333 298.926 158.951C299.688 159.903 299.307 161.236 298.355 161.997C298.165 162.188 297.594 162.378 297.213 162.378Z" fill="#FFDE81"/>
<path d="M297.594 163.137C297.404 163.137 297.404 163.137 297.213 163.137C292.453 162.185 283.314 162.185 283.124 162.185C281.981 162.185 281.029 161.233 281.029 160.091C281.029 158.948 281.981 157.996 283.124 157.996C283.505 157.996 292.834 157.996 297.975 158.948C299.117 159.139 299.879 160.281 299.688 161.423C299.498 162.566 298.736 163.137 297.594 163.137Z" fill="#FFDE81"/>
<path d="M281.982 167.707C280.84 167.707 280.078 166.945 279.888 165.803C279.697 164.661 280.649 163.518 281.792 163.328C283.124 163.137 295.12 161.614 299.118 162.376C300.26 162.566 301.022 163.709 300.832 164.851C300.641 165.993 299.499 166.755 298.356 166.565C295.881 166.184 287.313 166.945 282.363 167.517C282.172 167.707 282.172 167.707 281.982 167.707Z" fill="#FFDE81"/>
<path d="M284.836 172.467C283.884 172.467 282.932 171.705 282.742 170.753C282.552 169.611 283.313 168.469 284.456 168.278C289.596 167.326 291.12 166.755 293.595 165.993C294.737 165.613 296.261 165.232 298.355 164.47C299.497 164.089 300.64 164.851 301.021 165.993C301.401 167.136 300.64 168.278 299.497 168.659C297.403 169.23 296.07 169.801 294.737 170.182C292.072 170.944 290.548 171.515 285.217 172.657C285.027 172.467 284.836 172.467 284.836 172.467Z" fill="#FFDE81"/>
<path d="M289.407 175.896C288.455 175.896 287.503 175.135 287.312 174.183C287.122 173.04 287.884 171.898 289.026 171.707C295.88 170.565 297.404 167.899 297.404 167.899C297.784 166.757 298.927 166.186 300.069 166.567C301.212 166.948 301.783 168.09 301.402 169.232C301.212 169.994 299.308 174.373 289.788 175.896C289.597 175.896 289.597 175.896 289.407 175.896Z" fill="#FFDE81"/>
<path d="M297.594 173.419L295.881 155.902C295.881 155.902 303.497 156.474 303.497 164.47C303.687 167.136 302.926 170.182 297.594 173.419Z" fill="#FFDE81"/>
<path d="M249.423 116.49C251.327 123.726 246.948 131.342 239.713 133.246C232.478 135.15 224.862 130.77 222.958 123.535L220.483 114.396C218.579 107.161 222.958 99.5448 230.193 97.6408C237.428 95.7368 245.044 100.116 246.948 107.351L249.423 116.49Z" fill="#FFDE81"/>
<path d="M248.09 111.539C247.138 114.395 245.615 117.251 243.33 119.345C237.808 124.105 229.431 125.438 222.576 122.582L222.767 123.534C224.671 130.769 232.287 135.149 239.522 133.245C246.757 131.341 251.136 123.725 249.232 116.489L248.09 111.539Z" fill="#404353"/>
<path d="M222.957 122.963C217.816 119.727 212.294 107.16 220.291 104.304C225.241 102.591 223.337 118.013 223.337 122.392L222.957 122.963Z" fill="#404353"/>
<path d="M218.769 105.448C212.486 100.878 220.292 88.1211 235.715 88.1211C245.235 88.1211 245.235 95.3563 238.571 99.3547C233.049 102.591 224.672 100.688 220.483 106.209L218.769 105.448Z" fill="#404353"/>
<path d="M248.089 114.397C245.995 111.16 241.616 104.496 239.902 100.688C238.76 98.2125 237.427 94.2141 242.187 97.0701C246.185 99.5453 248.28 108.113 248.089 112.302V114.397Z" fill="#404353"/>
<path d="M139.563 144.862C137.279 146.956 134.613 149.051 132.519 151.526L101.674 216.071L124.712 186.369L149.083 135.723C145.847 138.959 142.8 142.006 139.563 144.862Z" fill="#E84600"/>
<path d="M121.284 134.198C123.569 131.152 125.664 127.534 128.329 124.298L74.2557 97.832L22.8477 102.973L112.907 144.48C115.572 141.243 118.619 137.816 121.284 134.198Z" fill="#FF753A"/>
<path d="M128.901 124.867C126.045 128.485 123.76 132.674 120.904 136.101C118.429 139.147 115.954 142.194 113.479 145.05L154.415 163.899L169.266 144.478L128.901 124.867Z" fill="#FF753A"/>
<path d="M67.4016 199.885L83.2048 166.755L0 126.962L13.328 99.1632L150.226 18.4336L187.544 36.3312L132.709 151.142L155.366 161.995L140.134 193.792L117.477 182.939L101.674 216.069L67.4016 199.885ZM128.901 71.1744L126.806 70.032L53.5024 112.872L98.4368 134.387L128.901 71.1744Z" fill="#FF5C16"/>
<path d="M155.366 161.807L169.265 144.48L158.412 168.471L139.562 194.936L155.366 161.807Z" fill="#E84600"/>
<path d="M150.034 134.96L204.108 16.5312L187.734 36.1425L132.898 150.954C134.231 149.431 149.273 135.722 150.034 134.96Z" fill="#F04800"/>
<path d="M13.3281 98.974L37.8897 77.6492L171.551 0.917969L150.416 18.2444L13.3281 98.974Z" fill="#E84600"/>
<path d="M150.416 18.2444L187.734 36.142L204.109 16.5308L171.55 0.917969L150.416 18.2444Z" fill="#E84600"/>
<path d="M104.529 104.687C99.9593 101.45 96.7225 102.783 94.6281 103.164C92.1529 103.545 90.4393 102.212 90.4393 102.212C89.4873 101.641 88.1545 101.831 87.3929 102.783C86.8217 103.735 87.0121 105.068 87.9641 105.83C88.1545 105.83 89.8681 107.162 93.2953 107.924C89.6777 111.161 86.0601 115.159 85.8697 115.35C85.1081 116.302 85.1081 117.634 86.0601 118.396C86.4409 118.777 87.0121 118.967 87.5833 118.967C88.1545 118.967 88.7257 118.777 89.1065 118.206C89.1065 118.206 91.7721 115.35 94.4377 112.684C91.7721 115.921 89.2969 119.348 88.9161 120.11C88.1545 121.062 88.5353 122.394 89.4873 123.156C89.8681 123.346 90.2489 123.537 90.8201 123.537C91.3913 123.537 92.1529 123.156 92.5337 122.585C93.8665 120.681 95.9609 118.015 97.8649 115.54C97.1033 116.873 96.3417 118.586 94.4377 121.442C93.8665 122.394 94.0569 123.727 95.1993 124.489C95.5801 124.679 95.9609 124.87 96.3417 124.87C97.1033 124.87 97.6745 124.489 98.2457 123.918C99.0073 122.775 99.5785 121.823 100.15 120.871C99.7689 121.823 100.15 122.966 100.911 123.537C101.292 123.727 101.673 123.918 102.054 123.918C102.815 123.918 103.386 123.537 103.767 122.966C105.862 119.919 106.814 117.444 107.194 115.35C108.146 109.257 106.623 106.401 104.529 104.687ZM100.15 119.919C100.911 118.586 101.292 117.825 101.863 116.873C101.482 117.634 100.911 118.586 100.15 119.919Z" fill="#FFDE81"/>
<path d="M38.8425 129.059C31.9881 128.678 22.2777 142.006 32.3689 145.624C23.2297 145.433 20.9449 158.38 29.3225 161.808C14.6617 158.952 16.3753 177.992 23.2297 184.846C18.4697 184.084 13.7097 188.654 14.4713 193.414C15.2329 198.364 17.1369 205.219 29.3225 208.836C41.5081 212.454 48.9337 205.6 55.0265 199.126C58.8345 207.123 78.0649 196.27 75.9705 186.94C83.2057 189.416 89.6793 181.228 89.8697 174.755C90.0601 168.281 85.4905 163.521 81.3017 159.332C84.3481 156.667 84.9193 151.526 84.1577 147.528C82.8249 141.054 74.8281 140.483 74.8281 135.342C74.8281 133.628 75.2089 127.916 73.6857 125.441C71.2105 121.443 67.0217 117.635 61.6905 119.539C38.8425 108.876 38.8425 129.059 38.8425 129.059Z" fill="#404353"/>
<path d="M51.9801 337.164C45.8873 336.021 44.7449 336.402 38.6521 334.879L24.5625 352.205H79.3977L47.6009 343.637L51.9801 337.164Z" fill="#002E4F"/>
<path d="M154.033 342.115L150.796 337.926C147.94 339.83 144.894 341.353 141.467 342.495L150.035 352.206H182.212L154.033 342.115Z" fill="#002E4F"/>
<path d="M32.9395 337.164C39.0323 338.687 45.3155 340.21 51.4083 341.352L96.7234 285.565L88.9171 263.479L57.1203 226.922L66.2595 278.711L32.9395 337.164Z" fill="#002E4F"/>
<path d="M94.4379 211.501C82.0619 208.264 65.1163 212.453 53.1211 217.023C53.1211 217.023 60.5467 246.535 65.4971 255.293C79.5867 280.997 141.086 344.971 141.086 344.971C144.513 343.829 150.987 339.069 153.843 337.165L94.4379 211.501Z" fill="#00396A"/>
<path d="M51.408 228.446C63.4032 223.876 87.3936 216.26 99.7695 219.497C99.7695 219.497 83.3952 181.036 75.9696 172.659C71.0192 166.947 43.6016 150.763 43.6016 171.897C43.792 200.648 51.408 228.446 51.408 228.446Z" fill="#CDE5E8"/>
<path d="M62.0697 169.993C61.8793 169.993 61.6889 170.183 61.4985 170.183C57.8809 171.135 54.0729 169.041 53.1209 165.423C52.1689 161.615 51.9785 156.855 51.9785 156.284C51.9785 152.476 55.0249 149.43 58.8329 149.43C62.6409 149.43 65.6873 152.476 65.6873 156.284C65.6873 157.617 65.8777 160.282 66.2585 161.996C67.4009 165.233 65.4969 168.85 62.0697 169.993Z" fill="#FFDE81"/>
<path d="M66.6403 163.14C66.6403 162.569 66.6403 162.188 66.4499 161.617C66.0691 160.094 65.8787 157.428 65.8787 155.905C65.8787 152.097 62.8323 149.051 59.0243 149.051C55.2163 149.051 52.1699 152.097 52.1699 155.905C52.1699 155.905 52.1699 156.286 52.1699 156.476C55.5971 160.665 61.1187 162.379 66.6403 163.14Z" fill="#FFE9AC"/>
<path d="M73.3035 142.575C75.5883 149.429 71.7803 156.664 64.9259 158.949C58.0715 161.234 50.8363 157.426 48.5515 150.572L45.6955 142.004C43.4107 135.149 47.2187 127.914 54.0731 125.629C60.9275 123.344 68.1627 127.152 70.4475 134.007L73.3035 142.575Z" fill="#FFDE81"/>
<path d="M149.846 135.72C149.655 135.53 149.275 135.339 148.894 135.339C149.275 134.959 149.465 134.578 149.846 134.197C150.607 133.245 150.607 131.912 149.655 131.151C149.465 130.96 149.465 130.96 149.275 130.96C149.846 130.008 149.846 128.866 148.894 128.104C148.323 127.533 147.371 127.343 146.609 127.723C147.561 126.771 148.132 126.01 148.323 126.01C149.084 125.058 149.084 123.725 148.132 122.963C147.18 122.202 145.847 122.202 145.086 123.154C145.086 123.154 140.326 128.485 135.566 131.151C133.471 127.914 130.615 126.962 130.615 126.771C129.473 126.391 128.331 126.962 127.95 127.914C127.569 129.056 128.14 130.199 129.092 130.77C129.092 130.77 130.806 131.531 132.139 133.435C131.948 134.007 131.758 134.578 131.567 135.339C99.9609 177.989 58.2633 162.947 56.3593 162.186C52.5513 160.663 48.3625 162.567 47.0297 166.375C45.5065 170.183 47.4105 174.371 51.2185 175.895C51.7897 176.085 61.8809 179.893 76.5417 179.893C79.3977 179.893 82.6345 179.703 85.8713 179.322C101.675 177.418 124.903 168.469 143.563 144.479C143.943 144.288 144.324 144.098 144.895 143.527C145.276 143.336 145.657 142.955 146.038 142.765C147.18 141.813 148.513 140.48 150.036 138.767C150.798 137.815 150.607 136.482 149.846 135.72Z" fill="#FFDE81"/>
<path d="M91.7738 162.377L90.0602 162.757C85.681 163.709 81.3018 164.09 76.7322 164.09C65.689 164.09 58.073 161.234 57.121 161.044C56.169 160.663 55.0266 160.473 54.0746 160.473C50.457 160.473 47.4106 162.567 46.0778 165.994C45.3162 168.089 45.1258 170.564 46.2682 172.468C50.457 179.893 61.881 182.94 76.7322 182.94C79.969 182.94 83.0154 182.749 86.2522 182.369C88.1562 182.178 90.0602 181.797 92.1546 181.417L93.4874 181.036C93.4874 181.036 91.7738 175.705 91.393 170.183C91.0122 168.279 91.7738 162.377 91.7738 162.377Z" fill="#E1F3F6"/>
<path d="M45.6954 149.05C50.265 146.194 51.7882 140.863 51.217 135.532C55.2154 138.197 58.2618 136.484 60.737 131.914C68.1626 142.386 79.5866 126.773 64.1642 121.252C51.7882 116.682 39.6026 129.058 42.649 141.434L45.6954 149.05Z" fill="#404353"/>
</svg>
