<svg width="21" height="21" viewBox="0 0 21 21" fill="none" xmlns="http://www.w3.org/2000/svg">
<path d="M15.8033 12.6967C14.9864 11.8798 14.0141 11.2751 12.9533 10.909C14.0895 10.1265 14.8359 8.81684 14.8359 7.33594C14.8359 4.94511 12.8908 3 10.5 3C8.10917 3 6.16406 4.94511 6.16406 7.33594C6.16406 8.81684 6.91052 10.1265 8.04674 10.909C6.9859 11.2751 6.01359 11.8798 5.19671 12.6967C3.78015 14.1133 3 15.9967 3 18H4.17188C4.17188 14.5107 7.01065 11.6719 10.5 11.6719C13.9893 11.6719 16.8281 14.5107 16.8281 18H18C18 15.9967 17.2199 14.1133 15.8033 12.6967ZM10.5 10.5C8.75534 10.5 7.33594 9.08063 7.33594 7.33594C7.33594 5.59125 8.75534 4.17188 10.5 4.17188C12.2447 4.17188 13.6641 5.59125 13.6641 7.33594C13.6641 9.08063 12.2447 10.5 10.5 10.5Z" fill="#7D8088"/>
<circle cx="10.5" cy="10.5" r="10" stroke="#7D8088"/>
</svg>
