<svg width="25" height="24" viewBox="0 0 25 24" fill="none" xmlns="http://www.w3.org/2000/svg">
<path fill-rule="evenodd" clip-rule="evenodd" d="M11.2194 0.358414C13.9952 0.358414 16.2607 2.54467 16.3879 5.28902L16.3936 5.53258V6.62108C16.3936 7.10433 16.0018 7.49608 15.5186 7.49608C15.0756 7.49608 14.7095 7.1669 14.6515 6.73981L14.6436 6.62108V5.53258C14.6436 3.7092 13.2179 2.21839 11.4206 2.11423L11.2194 2.10841H5.53189C3.70949 2.10841 2.21885 3.53423 2.1147 5.33142L2.10889 5.53258V18.5176C2.10889 20.3408 3.53444 21.8318 5.33082 21.9359L5.53189 21.9417H11.2311C13.048 21.9417 14.5339 20.5212 14.6378 18.7308L14.6436 18.5304V17.4302C14.6436 16.947 15.0353 16.5552 15.5186 16.5552C15.9615 16.5552 16.3276 16.8844 16.3856 17.3115L16.3936 17.4302V18.5304C16.3936 21.2968 14.2156 23.5553 11.4811 23.6858L11.2311 23.6917H5.53189C2.75703 23.6917 0.491701 21.5053 0.364518 18.7611L0.358887 18.5176V5.53258C0.358887 2.75702 2.54494 0.491253 5.28841 0.364046L5.53189 0.358414H11.2194ZM24.0481 11.3917C24.2152 11.551 24.3193 11.7758 24.3193 12.025C24.3193 12.2764 24.2133 12.5031 24.0434 12.6627L20.6454 16.0468C20.3029 16.3878 19.7489 16.3867 19.4079 16.0443C19.0979 15.733 19.0707 15.2468 19.3255 14.9048L19.4105 14.8069L21.3239 12.9H9.39648C8.91323 12.9 8.52148 12.5082 8.52148 12.025C8.52148 11.582 8.85066 11.2159 9.27775 11.158L9.39648 11.15H21.3258L19.4106 9.24411C19.0992 8.93415 19.0699 8.44811 19.3233 8.105L19.4078 8.00667C19.7178 7.69534 20.2038 7.66602 20.5469 7.91942L20.6453 8.00392L24.0481 11.3917Z" fill="white"/>
</svg>
