<svg width="22" height="22" viewBox="0 0 22 22" fill="none" xmlns="http://www.w3.org/2000/svg">
<path d="M18.7821 3.21871C14.4908 -1.07306 7.50882 -1.07305 3.2183 3.21767C-1.07304 7.50839 -1.07263 14.4905 3.21872 18.7821C7.50882 23.0726 14.4908 23.0726 18.7817 18.7813C23.0726 14.4905 23.0724 7.50881 18.7821 3.21871ZM17.5813 17.5813C13.9525 21.2101 8.04773 21.2105 4.41871 17.5817C0.78907 13.9523 0.789485 8.04689 4.41871 4.41808C8.04752 0.789474 13.9521 0.78906 17.5817 4.41849C21.2105 8.0473 21.2101 13.9527 17.5813 17.5813ZM6.89503 8.02137C6.89503 7.31113 7.47107 6.73509 8.18131 6.73509C8.89135 6.73509 9.46739 7.31092 9.46739 8.02137C9.46739 8.73203 8.89135 9.30787 8.18131 9.30787C7.47107 9.30787 6.89503 8.73203 6.89503 8.02137ZM12.7274 8.02137C12.7274 7.31113 13.3038 6.73509 14.0141 6.73509C14.7241 6.73509 15.3002 7.31092 15.3002 8.02137C15.3002 8.73203 14.7243 9.30787 14.0141 9.30787C13.3038 9.30787 12.7274 8.73203 12.7274 8.02137Z" fill="#7D8088"/>
<path d="M10.807 11.9999C8.71527 11.9999 6.84838 13.191 6.05122 15.0345C5.91473 15.3498 6.06014 15.7159 6.37544 15.8526C6.69074 15.9893 7.05706 15.8439 7.19355 15.5283C7.79344 14.1406 9.21186 13.2443 10.807 13.2443C12.4391 13.2443 13.8658 14.14 14.4418 15.5269C14.5412 15.7665 14.7727 15.9106 15.0166 15.9106C15.0963 15.9106 15.1772 15.8953 15.2552 15.8631C15.5728 15.7312 15.7231 15.367 15.5912 15.0498C14.8216 13.197 12.9438 11.9999 10.807 11.9999Z" fill="#7D8088"/>
</svg>
