<svg width="22" height="22" viewBox="0 0 22 22" fill="none" xmlns="http://www.w3.org/2000/svg">
<path d="M15.9647 13.6134L13.2383 10.887L15.9647 8.16063C16.6345 7.4908 16.6202 6.37992 15.9501 5.70985C15.2801 5.03977 14.1692 5.02547 13.4994 5.6953L10.7729 8.42171L8.04654 5.6953C7.37671 5.02547 6.26583 5.03977 5.59576 5.70985C4.92568 6.37992 4.91138 7.4908 5.58121 8.16063L8.30762 10.887L5.58121 13.6134C4.91138 14.2833 4.92568 15.3942 5.59576 16.0642C6.26583 16.7343 7.37671 16.7486 8.04654 16.0788L10.7729 13.3524L13.4994 16.0788C14.1692 16.7486 15.2801 16.7343 15.9501 16.0642C16.6202 15.3942 16.6345 14.2833 15.9647 13.6134Z" fill="white"/>
</svg>
