<svg width="137" height="137" viewBox="0 0 137 137" fill="none" xmlns="http://www.w3.org/2000/svg">
<circle cx="68.5" cy="68.5" r="64.5" stroke="#9CCABD" stroke-width="8"/>
<path d="M95.12 53.6798L93.3184 51.8782C92.7523 51.3117 91.9975 51 91.1917 51C90.386 51 89.6307 51.3117 89.0646 51.8782L63.7499 77.1925L47.9336 61.3758C47.3675 60.8101 46.6122 60.498 45.8065 60.498C45.0011 60.498 44.2463 60.8101 43.6798 61.3758L41.8778 63.1769C41.3112 63.7444 41 64.5 41 65.3049C41 66.1102 41.3112 66.8655 41.8778 67.432L59.7353 85.2887C59.759 85.3222 59.7841 85.3535 59.8131 85.3822L61.6152 87.1542C62.1813 87.7185 62.9365 88.0007 63.7485 88.0007H63.7579C64.5641 88.0007 65.3194 87.7185 65.8846 87.1542L67.6871 85.3665C67.7161 85.3379 67.7407 85.3142 67.7555 85.29L95.1195 57.9287C96.2933 56.7576 96.2933 54.8522 95.12 53.6798Z" fill="#9CCABD"/>
</svg>
