<svg width="10" height="13" viewBox="0 0 10 13" fill="none" xmlns="http://www.w3.org/2000/svg">
<path fill-rule="evenodd" clip-rule="evenodd" d="M8.2358 1.82731H6.03562V0H4.66794V1.82731H3.56785V0H2.20018V1.82731H0V2.92369L1.15955 3.13253V9.81526L0 9.99799V11.1205H2.22991V12.9478H3.59759V11.1205H4.69768V12.9478L6.06535 13V11.0683C6.96723 10.9987 8.87206 10.4418 9.27642 8.77108C9.4449 8.12718 9.4013 6.64096 7.87901 5.84739C7.52223 5.64726 6.55296 5.25221 5.53017 5.27309H3.38946V3.26305H6.4816L6.60053 4.17671H8.2358V1.82731ZM3.32969 6.52599V9.528H5.52987C6.0254 9.51929 7.03431 9.24085 7.10567 8.19667C7.19486 7.69199 7.00458 6.65129 5.52987 6.52599H3.32969Z" fill="#F35F28"/>
</svg>
