<svg width="31" height="33" viewBox="0 0 31 33" fill="none" xmlns="http://www.w3.org/2000/svg">
<path d="M30.4794 32.1781L28.0136 9.20548C27.9725 8.83562 27.6437 8.54794 27.2739 8.54794H22.7122V7.15068C22.7122 3.20548 19.5068 0 15.5616 0C11.6163 0 8.41087 3.20548 8.41087 7.15068V8.54794H3.72594C3.35607 8.54794 3.02731 8.83562 2.98621 9.20548L0.520456 32.1781C0.47936 32.3836 0.561552 32.589 0.684839 32.7534C0.808127 32.9178 1.01361 33 1.21909 33H29.7807C29.9862 33 30.1917 32.9178 30.315 32.7534C30.4383 32.589 30.5205 32.3836 30.4794 32.1781ZM21.9725 12.6986C22.3424 12.6986 22.63 12.9863 22.63 13.3562C22.63 13.726 22.3424 14.0137 21.9725 14.0137C21.6026 14.0137 21.315 13.726 21.315 13.3562C21.315 12.9863 21.6026 12.6986 21.9725 12.6986ZM9.89032 7.15068C9.89032 4.0274 12.4383 1.47945 15.5616 1.47945C18.6848 1.47945 21.2328 4.0274 21.2328 7.15068V8.54794H9.89032V7.15068ZM9.15059 12.6986C9.52046 12.6986 9.80813 12.9863 9.80813 13.3562C9.80813 13.726 9.52046 14.0137 9.15059 14.0137C8.78073 14.0137 8.49306 13.726 8.49306 13.3562C8.49306 12.9863 8.78073 12.6986 9.15059 12.6986ZM2.0821 31.4795L4.38347 9.9863H8.41087V11.3425C7.58895 11.6301 7.01361 12.411 7.01361 13.3151C7.01361 14.4658 7.95881 15.411 9.1095 15.411C10.2602 15.411 11.2054 14.4658 11.2054 13.3151C11.2054 12.411 10.63 11.6301 9.80813 11.3425V9.9863H21.1506V11.3425C20.3287 11.6301 19.7533 12.411 19.7533 13.3151C19.7533 14.4658 20.6985 15.411 21.8492 15.411C22.9999 15.411 23.9451 14.4658 23.9451 13.3151C23.9451 12.411 23.3698 11.6301 22.5479 11.3425V9.9863H26.7396L29.041 31.4795H2.0821Z" fill="#404353"/>
</svg>
