<svg width="25" height="26" viewBox="0 0 25 26" fill="none" xmlns="http://www.w3.org/2000/svg">
<path d="M18.5858 16.2072L15.3543 12.9758L18.5858 9.7443C19.3797 8.95038 19.3627 7.63372 18.5685 6.83951C17.7743 6.0453 16.4576 6.02835 15.6637 6.82227L12.4323 10.0537L9.20078 6.82227C8.40686 6.02835 7.0902 6.0453 6.29599 6.83951C5.50178 7.63372 5.48483 8.95038 6.27875 9.7443L9.51022 12.9758L6.27875 16.2072C5.48483 17.0012 5.50178 18.3178 6.29599 19.112C7.0902 19.9062 8.40686 19.9232 9.20078 19.1293L12.4323 15.8978L15.6637 19.1293C16.4576 19.9232 17.7743 19.9062 18.5685 19.112C19.3627 18.3178 19.3797 17.0012 18.5858 16.2072Z" fill="#282624"/>
</svg>
