<svg width="36" height="38" viewBox="0 0 36 38" fill="none" xmlns="http://www.w3.org/2000/svg">
<path d="M35.249 37.0536L32.4096 10.6002C32.3623 10.1743 31.9837 9.84309 31.5578 9.84309H26.305V8.23412C26.305 3.69116 22.6138 0 18.0709 0C13.5279 0 9.83676 3.69116 9.83676 8.23412V9.84309H4.44199C4.01609 9.84309 3.63751 10.1743 3.59019 10.6002L0.750835 37.0536C0.703513 37.2902 0.798158 37.5268 0.940126 37.7161C1.08209 37.9054 1.31871 38 1.55532 38H34.4445C34.6811 38 34.9177 37.9054 35.0597 37.7161C35.2016 37.5268 35.2963 37.2902 35.249 37.0536ZM25.4532 14.6227C25.8791 14.6227 26.2104 14.9539 26.2104 15.3798C26.2104 15.8057 25.8791 16.137 25.4532 16.137C25.0273 16.137 24.696 15.8057 24.696 15.3798C24.696 14.9539 25.0273 14.6227 25.4532 14.6227ZM11.5404 8.23412C11.5404 4.63761 14.4744 1.70361 18.0709 1.70361C21.6674 1.70361 24.6014 4.63761 24.6014 8.23412V9.84309H11.5404V8.23412ZM10.6886 14.6227C11.1145 14.6227 11.4457 14.9539 11.4457 15.3798C11.4457 15.8057 11.1145 16.137 10.6886 16.137C10.2627 16.137 9.93141 15.8057 9.93141 15.3798C9.93141 14.9539 10.2627 14.6227 10.6886 14.6227ZM2.54909 36.2491L5.19915 11.4994H9.83676V13.061C8.89031 13.3923 8.2278 14.2914 8.2278 15.3325C8.2278 16.6575 9.31622 17.746 10.6412 17.746C11.9663 17.746 13.0547 16.6575 13.0547 15.3325C13.0547 14.2914 12.3922 13.3923 11.4457 13.061V11.4994H24.5068V13.061C23.5603 13.3923 22.8978 14.2914 22.8978 15.3325C22.8978 16.6575 23.9862 17.746 25.3112 17.746C26.6363 17.746 27.7247 16.6575 27.7247 15.3325C27.7247 14.2914 27.0622 13.3923 26.1157 13.061V11.4994H30.9426L33.5927 36.2491H2.54909Z" fill="white"/>
</svg>
