<svg width="14" height="19" viewBox="0 0 14 19" fill="none" xmlns="http://www.w3.org/2000/svg">
<path fill-rule="evenodd" clip-rule="evenodd" d="M12.3401 3.08638H9.04346V0.558838H6.9942V3.08638H5.34589V0.558838H3.29663V3.08638H0V4.6029L1.73741 4.89176V14.1353L0 14.3881V15.9407H3.34118V18.4682H5.39043V15.9407H7.03875V18.4682L9.08801 18.5405V15.8685C10.4393 15.7722 13.2934 15.0019 13.8993 12.691C14.1517 11.8004 14.0864 9.74463 11.8055 8.64696C11.2709 8.37013 9.81861 7.8237 8.28612 7.85259H5.07859V5.0723H9.71169L9.88989 6.33607H12.3401V3.08638ZM4.98903 9.5856V13.738H8.28566C9.02814 13.7259 10.5398 13.3408 10.6468 11.8965C10.7804 11.1984 10.4953 9.75892 8.28566 9.5856H4.98903Z" fill="#F35F28"/>
</svg>
