<svg width="20" height="14" viewBox="0 0 20 14" fill="none" xmlns="http://www.w3.org/2000/svg">
<path d="M19.68 0.974473L19.0249 0.31935C18.819 0.113334 18.5446 0 18.2516 0C17.9586 0 17.6839 0.113334 17.4781 0.31935L8.27269 9.52456L2.5213 3.77301C2.31545 3.56732 2.04082 3.45382 1.74781 3.45382C1.45496 3.45382 1.18049 3.56732 0.974473 3.77301L0.319187 4.42797C0.113171 4.63431 0 4.90911 0 5.20179C0 5.49464 0.113171 5.76927 0.319187 5.97529L6.81285 12.4686C6.82147 12.4808 6.83058 12.4922 6.84115 12.5026L7.49643 13.147C7.70228 13.3522 7.97692 13.4548 8.2722 13.4548H8.27562C8.56879 13.4548 8.84342 13.3522 9.04895 13.147L9.7044 12.4969C9.71497 12.4865 9.72391 12.4779 9.72928 12.4691L19.6799 2.51951C20.1067 2.09366 20.1067 1.40081 19.68 0.974473Z" fill="#fff"/>
</svg>
