<svg width="20" height="15" viewBox="0 0 20 15" fill="none" xmlns="http://www.w3.org/2000/svg">
<path d="M19.68 1.74693L19.0249 1.09181C18.819 0.885794 18.5446 0.772461 18.2516 0.772461C17.9586 0.772461 17.6839 0.885794 17.4781 1.09181L8.27269 10.297L2.5213 4.54547C2.31545 4.33978 2.04082 4.22629 1.74781 4.22629C1.45496 4.22629 1.18049 4.33978 0.974473 4.54547L0.319187 5.20043C0.113171 5.40677 0 5.68157 0 5.97425C0 6.2671 0.113171 6.54174 0.319187 6.74775L6.81285 13.2411C6.82147 13.2533 6.83058 13.2647 6.84115 13.2751L7.49643 13.9195C7.70228 14.1247 7.97692 14.2273 8.2722 14.2273H8.27562C8.56879 14.2273 8.84342 14.1247 9.04895 13.9195L9.7044 13.2694C9.71497 13.259 9.72391 13.2504 9.72928 13.2416L19.6799 3.29198C20.1067 2.86612 20.1067 2.17328 19.68 1.74693Z" fill="url(#paint0_linear)"/>
<defs>
<linearGradient id="paint0_linear" x1="-2.21532e-08" y1="9.82242" x2="20" y2="9.82242" gradientUnits="userSpaceOnUse">
<stop stop-color="#fff"/>
</linearGradient>
</defs>
</svg>
