<svg width="13" height="13" viewBox="0 0 13 13" fill="none" xmlns="http://www.w3.org/2000/svg">
<path d="M6.4978 0C8.29131 0 9.91517 0.729304 11.094 1.90337C12.268 3.08247 12.9973 4.70633 12.9973 6.49984C12.9973 8.29336 12.268 9.91722 11.094 11.0963C9.91486 12.2704 8.29131 12.9997 6.4978 12.9997C4.70428 12.9997 3.08074 12.2704 1.90667 11.0963C0.727574 9.91722 0.00299072 8.29367 0.00299072 6.49984C0.00299072 4.70633 0.727259 3.08247 1.90636 1.90337C3.08074 0.729304 4.70428 0 6.4978 0ZM9.81036 6.14511C10.0052 6.14511 10.1601 6.305 10.1601 6.49984C10.1601 6.69468 10.0052 6.85458 9.81036 6.85458H6.50787H6.4978C6.3678 6.85458 6.25291 6.77967 6.19311 6.67485L6.18807 6.66981L6.18303 6.65974V6.65471L6.178 6.64463L6.17296 6.63456V6.62952L6.16793 6.61945L6.16289 6.61442V6.60434L6.15785 6.59427V6.58924L6.15282 6.57916V6.56909V6.56405V6.55902L6.14778 6.55398V6.54391V6.53384V6.52502V6.51999V6.50991V6.49984V2.26818C6.14778 2.07334 6.30264 1.91848 6.49748 1.91848C6.69232 1.91848 6.85222 2.07334 6.85222 2.26818V6.14511H9.81036ZM10.5944 2.40321C9.54533 1.35411 8.09648 0.709474 6.4978 0.709474C4.89912 0.709474 3.45027 1.35379 2.40117 2.40321C1.3571 3.45231 0.707429 4.90116 0.707429 6.49984C0.707429 8.09852 1.35678 9.54737 2.40117 10.5968C3.45027 11.6459 4.89912 12.2905 6.4978 12.2905C8.09648 12.2905 9.54533 11.6459 10.5944 10.5968C11.6435 9.54769 12.2932 8.09883 12.2932 6.49984C12.2932 4.90116 11.6438 3.45231 10.5944 2.40321Z" fill="#9B9DA6"/>
</svg>
