<svg width="26" height="26" viewBox="0 0 26 26" fill="none" xmlns="http://www.w3.org/2000/svg">
<path d="M19.1823 16.3385L15.9147 13.0709L19.1823 9.80326C19.9851 9.00047 19.9679 7.66909 19.1648 6.866C18.3617 6.06291 17.0304 6.04577 16.2276 6.84857L12.96 10.1162L9.69236 6.84857C8.88957 6.04577 7.55818 6.06291 6.75509 6.866C5.95201 7.66909 5.93487 9.00047 6.73766 9.80326L10.0053 13.0709L6.73766 16.3385C5.93487 17.1413 5.95201 18.4726 6.75509 19.2757C7.55818 20.0788 8.88957 20.096 9.69236 19.2932L12.96 16.0256L16.2276 19.2932C17.0304 20.096 18.3617 20.0788 19.1648 19.2757C19.9679 18.4726 19.9851 17.1413 19.1823 16.3385Z" fill="white"/>
</svg>
