<svg width="18" height="18" viewBox="0 0 18 18" fill="none" xmlns="http://www.w3.org/2000/svg">
<path d="M13.427 11.3244L11.1022 8.99964L13.427 6.67485C13.9981 6.1037 13.9859 5.15646 13.4146 4.58509C12.8432 4.01372 11.8959 4.00153 11.3248 4.57269L9 6.89747L6.67521 4.57269C6.10405 4.00153 5.15681 4.01372 4.58544 4.58509C4.01407 5.15646 4.00188 6.1037 4.57304 6.67485L6.89783 8.99964L4.57304 11.3244C4.00188 11.8956 4.01407 12.8428 4.58544 13.4142C5.15681 13.9856 6.10405 13.9978 6.67521 13.4266L9 11.1018L11.3248 13.4266C11.8959 13.9978 12.8432 13.9856 13.4146 13.4142C13.9859 12.8428 13.9981 11.8956 13.427 11.3244Z" fill="white"/>
</svg>
