<svg width="27" height="27" viewBox="0 0 27 27" fill="none" xmlns="http://www.w3.org/2000/svg">
<path d="M19.9858 17.0013L16.5552 13.5707L19.9858 10.1401C20.8286 9.2973 20.8106 7.8995 19.9675 7.05636C19.1243 6.21321 17.7265 6.19522 16.8837 7.03806L13.4531 10.4686L10.0225 7.03806C9.1797 6.19522 7.7819 6.21321 6.93876 7.05636C6.09561 7.8995 6.07762 9.2973 6.92046 10.1401L10.351 13.5707L6.92046 17.0013C6.07762 17.8441 6.09561 19.2419 6.93876 20.0851C7.7819 20.9282 9.1797 20.9462 10.0225 20.1034L13.4531 16.6728L16.8837 20.1034C17.7265 20.9462 19.1243 20.9282 19.9675 20.0851C20.8106 19.2419 20.8286 17.8441 19.9858 17.0013Z" fill="white"/>
</svg>
