<svg width="24" height="24" viewBox="0 0 24 24" fill="none" xmlns="http://www.w3.org/2000/svg">
<path d="M23.0912 19.5088C21.4297 18.1197 16.543 14.0222 14.3022 12.0237C15.5152 10.9117 17.2136 9.25809 18.8656 7.64897C20.7567 5.8067 22.5433 4.06695 23.3529 3.38337C23.7635 3.0372 23.9988 2.52838 23.9988 1.9874C23.9988 1.31062 23.6468 0.710531 23.0569 0.382408C22.47 0.0562534 21.7791 0.0723314 21.2083 0.426845C19.3655 1.56989 11.9989 6.8604 11.9989 8.001C11.9989 8.33747 11.9851 8.73323 11.8653 9.18239C11.3145 8.23777 10.9989 7.37232 10.9989 7.00102C10.9989 6.28961 8.58142 3.97221 3.81337 0.112409C3.6156 -0.0482303 3.32658 -0.0336054 3.1454 0.147565L0.145422 3.14755C-0.0357489 3.3282 -0.0508894 3.61676 0.110266 3.81551C3.97012 8.58356 6.28746 11.001 6.99888 11.001C7.42338 11.001 8.49058 11.4117 9.58763 12.1191C7.37069 14.0897 2.85216 17.8821 0.907699 19.5078C0.330108 19.9907 -0.000967858 20.7011 -0.000967858 21.457C-0.000967858 22.8598 1.14015 24.0009 2.54297 24.0009C3.29836 24.0009 4.00926 23.6694 4.49216 23.0913C6.16301 21.0938 10.0705 16.4382 11.9992 14.2791C13.9893 16.5082 18.1125 21.4255 19.5072 23.0932C19.9896 23.6704 20.7001 24.0009 21.455 24.0009C22.8578 24.0009 23.9989 22.8598 23.9989 21.457C23.9989 20.7021 23.6683 19.9917 23.0912 19.5088ZM12.9989 8.08894C13.5248 7.26765 18.6874 3.16756 21.7357 1.2765C21.9935 1.11783 22.306 1.10901 22.5707 1.25596C22.8387 1.4054 22.9989 1.67882 22.9989 1.9874C22.9989 2.23302 22.8929 2.46299 22.7079 2.61922C21.871 3.32577 20.0721 5.07771 18.1679 6.93268C16.4893 8.568 14.7647 10.2467 13.5602 11.3467C13.485 11.2756 13.4076 11.2026 13.3525 11.1475C13.0559 10.8509 12.7896 10.5275 12.5425 10.1988C12.9528 9.33806 12.9977 8.60517 12.9989 8.08894ZM3.7251 22.4497C3.43261 22.8002 3.00145 23.0009 2.54297 23.0009C1.6914 23.0009 0.999011 22.3085 0.999011 21.457C0.999011 20.998 1.19968 20.5673 1.54932 20.2753C3.54736 18.6042 8.25728 14.6508 10.4205 12.7163C10.6709 12.9161 10.9166 13.1256 11.1455 13.3545C11.194 13.4031 11.26 13.4733 11.3211 13.5376C9.40435 15.6773 5.41906 20.4249 3.7251 22.4497ZM21.455 23.001C20.9965 23.001 20.5663 22.8008 20.2743 22.4516C18.1527 19.9145 13.0853 13.8804 11.8524 12.6475C10.3456 11.1407 8.06486 10.0128 7.09854 10.0128C7.09366 10.0128 7.08827 10.0132 7.0834 10.0132C6.49451 9.78426 3.67082 6.60165 1.17132 3.53572L1.49898 3.20806L6.14543 7.85452C6.24307 7.95216 6.37104 8.001 6.49896 8.001C6.62688 8.001 6.75481 7.95216 6.85249 7.85452C7.04782 7.65919 7.04782 7.34279 6.85249 7.14751L2.20603 2.50105L2.499 2.20808L7.14546 6.85454C7.2431 6.95218 7.37107 7.00102 7.49899 7.00102C7.62691 7.00102 7.75483 6.95218 7.85252 6.85454C8.04784 6.65921 8.04784 6.34281 7.85252 6.14753L3.20606 1.50107L3.53371 1.17342C6.5996 3.67292 9.78174 6.49323 9.99901 7.00102C9.99901 8.043 11.1308 10.3399 12.6455 11.8545C13.8784 13.0874 19.9125 18.1548 22.4496 20.2759C22.7987 20.5683 22.9989 20.9985 22.9989 21.457C22.9989 22.3086 22.3065 23.001 21.455 23.001Z" fill="#ED7658"/>
</svg>
