<svg width="17" height="16" viewBox="0 0 17 16" fill="none" xmlns="http://www.w3.org/2000/svg">
<path d="M12.603 10.1437L10.5306 8.07133L12.603 5.99898C13.1121 5.48984 13.1013 4.64546 12.5919 4.13613C12.0826 3.6268 11.2382 3.61593 10.7291 4.12508L8.65674 6.19743L6.58439 4.12508C6.07524 3.61593 5.23086 3.6268 4.72153 4.13613C4.21221 4.64546 4.20134 5.48984 4.71048 5.99898L6.78283 8.07133L4.71048 10.1437C4.20134 10.6528 4.21221 11.4972 4.72153 12.0065C5.23086 12.5159 6.07525 12.5267 6.58439 12.0176L8.65674 9.94524L10.7291 12.0176C11.2382 12.5267 12.0826 12.5159 12.5919 12.0065C13.1013 11.4972 13.1121 10.6528 12.603 10.1437Z" fill="white"/>
</svg>
