<svg width="30" height="30" viewBox="0 0 30 30" fill="none" xmlns="http://www.w3.org/2000/svg">
<g clip-path="url(#clip0)">
<path d="M28.0051 15.3886C27.8844 15.1416 27.8844 14.8583 28.0051 14.6114L29.124 12.3225C29.747 11.048 29.2534 9.52898 28.0003 8.86412L25.7498 7.66998C25.507 7.54119 25.3405 7.31198 25.293 7.04133L24.8528 4.53184C24.6077 3.13462 23.3153 2.19572 21.911 2.39441L19.3883 2.75124C19.1161 2.78968 18.8468 2.70214 18.6493 2.51107L16.8182 0.739671C15.7986 -0.246691 14.2014 -0.246749 13.1818 0.739671L11.3507 2.51124C11.1531 2.70237 10.8839 2.78974 10.6116 2.75142L8.08902 2.39458C6.68424 2.19578 5.39226 3.13479 5.14716 4.53201L4.70701 7.04139C4.65949 7.3121 4.49302 7.54125 4.25027 7.6701L1.9997 8.86423C0.746621 9.52904 0.25303 11.0482 0.875995 12.3227L1.99484 14.6115C2.11554 14.8585 2.11554 15.1418 1.99484 15.3887L0.875936 17.6776C0.252971 18.952 0.746562 20.4711 1.99964 21.1359L4.25021 22.3301C4.49302 22.4588 4.65949 22.6881 4.70701 22.9587L5.14716 25.4682C5.37028 26.7401 6.46094 27.6322 7.71443 27.6321C7.83789 27.6321 7.96316 27.6234 8.08908 27.6056L10.6117 27.2487C10.8837 27.2101 11.1532 27.2978 11.3507 27.4889L13.1818 29.2603C13.6917 29.7535 14.3457 30.0001 15 30.0001C15.6541 30 16.3085 29.7534 16.8181 29.2603L18.6493 27.4889C18.8469 27.2978 19.1162 27.2105 19.3883 27.2487L21.911 27.6056C23.3159 27.8043 24.6077 26.8654 24.8528 25.4681L25.293 22.9588C25.3406 22.6881 25.507 22.4589 25.7498 22.3301L28.0003 21.1359C29.2534 20.4711 29.747 18.952 29.124 17.6775L28.0051 15.3886ZM27.1894 19.6074L24.9388 20.8015C24.2212 21.1823 23.7291 21.8596 23.5888 22.6597L23.1486 25.1691C23.0657 25.6419 22.6287 25.9594 22.1533 25.8923L19.6307 25.5355C18.8262 25.4215 18.0301 25.6804 17.4463 26.2452L15.6151 28.0165C15.2702 28.3502 14.7298 28.3502 14.3848 28.0165L12.5537 26.2452C12.0602 25.7678 11.4151 25.5091 10.7417 25.5091C10.6183 25.5091 10.4939 25.5178 10.3693 25.5354L7.84668 25.8922C7.37172 25.9594 6.93432 25.6418 6.85135 25.1691L6.41114 22.6596C6.27075 21.8594 5.77868 21.1822 5.06109 20.8015L2.81051 19.6073C2.38653 19.3824 2.21954 18.8685 2.4303 18.4373L3.5492 16.1483C3.90592 15.4185 3.90592 14.5814 3.5492 13.8516L2.4303 11.5626C2.21954 11.1314 2.38653 10.6175 2.81051 10.3926L5.06109 9.19845C5.77862 8.81765 6.27075 8.14043 6.41108 7.34028L6.85123 4.83084C6.9342 4.35811 7.37119 4.04053 7.84656 4.10768L10.3692 4.46451C11.1734 4.57836 11.9697 4.31955 12.5536 3.75477L14.3848 1.98338C14.7296 1.64974 15.27 1.64974 15.615 1.98338L17.4461 3.75477C18.03 4.31961 18.8263 4.57836 19.6306 4.46451L22.1532 4.10768C22.6282 4.04047 23.0656 4.35811 23.1485 4.83084L23.5887 7.34034C23.7291 8.14049 24.2211 8.81777 24.9387 9.19845L27.1893 10.3926C27.6133 10.6175 27.7803 11.1314 27.5695 11.5626L26.4506 13.8515C26.0939 14.5813 26.0939 15.4185 26.4506 16.1483L27.5695 18.4372C27.7803 18.8685 27.6133 19.3825 27.1894 19.6074Z" fill="white"/>
<path d="M21.3214 8.67862C20.9836 8.34077 20.4357 8.34077 20.0979 8.67862L8.67868 20.0979C8.34083 20.4357 8.34083 20.9835 8.67868 21.3214C8.84761 21.4903 9.06903 21.5748 9.2904 21.5748C9.51176 21.5748 9.73324 21.4904 9.90211 21.3214L21.3213 9.90217C21.6593 9.56426 21.6593 9.01653 21.3214 8.67862Z" fill="white"/>
<path d="M11.5394 7.21378C9.79024 7.21378 8.36719 8.63683 8.36719 10.386C8.36719 12.1351 9.79024 13.5582 11.5394 13.5582C13.2885 13.5582 14.7116 12.1351 14.7116 10.386C14.7116 8.63683 13.2885 7.21378 11.5394 7.21378ZM11.5394 11.8278C10.7443 11.8278 10.0975 11.181 10.0975 10.3859C10.0975 9.59085 10.7443 8.94404 11.5394 8.94404C12.3344 8.94404 12.9813 9.59085 12.9813 10.3859C12.9812 11.181 12.3344 11.8278 11.5394 11.8278Z" fill="white"/>
<path d="M18.4608 16.4419C16.7116 16.4419 15.2886 17.865 15.2886 19.6141C15.2886 21.3632 16.7116 22.7863 18.4608 22.7863C20.2099 22.7863 21.633 21.3632 21.633 19.6141C21.633 17.865 20.2099 16.4419 18.4608 16.4419ZM18.4608 21.056C17.6657 21.056 17.0188 20.4091 17.0188 19.6141C17.0188 18.819 17.6657 18.1722 18.4608 18.1722C19.2558 18.1722 19.9026 18.819 19.9026 19.6141C19.9026 20.4091 19.2558 21.056 18.4608 21.056Z" fill="white"/>
</g>
<defs>
<clipPath id="clip0">
<rect width="30" height="30" fill="white"/>
</clipPath>
</defs>
</svg>
