<svg width="28" height="25" viewBox="0 0 28 25" fill="none" xmlns="http://www.w3.org/2000/svg">
<path d="M1.48965 11.4258C1.07129 11.8928 0.816407 12.5092 0.816407 13.1836C0.816407 14.6373 1.99942 15.8203 3.45313 15.8203L8.5707 15.8203C8.06387 17.3584 7.84766 19.3992 7.84766 20.274L7.84766 21.1523C7.84766 23.0906 9.425 24.668 11.3633 24.668L12.2422 24.668C12.6453 24.668 12.9969 24.3937 13.0947 24.0023L13.5734 22.0869C14.2443 19.4045 16.3742 16.4449 18.5785 15.907C18.9646 16.8844 19.918 17.5781 21.0313 17.5781L26.3047 17.5781C26.7898 17.5781 27.1836 17.1844 27.1836 16.6992L27.1836 0.878906C27.1836 0.393749 26.7898 -3.44227e-08 26.3047 -7.68364e-08L21.0313 -5.37855e-07C19.983 -6.29495e-07 19.076 0.614648 18.6512 1.50293L15.6313 0.496287C14.6439 0.166991 13.615 -1.1862e-06 12.5738 -1.27723e-06L5.21094 -1.92091e-06C3.75723 -2.048e-06 2.57422 1.18301 2.57422 2.63672C2.57422 2.97949 2.63985 3.30762 2.75938 3.6082C1.64141 3.91347 0.816408 4.93828 0.816408 6.15234C0.816408 6.82676 1.07129 7.44316 1.48965 7.91015C1.07129 8.37715 0.816408 8.99355 0.816408 9.66797C0.816408 10.3424 1.07129 10.9588 1.48965 11.4258ZM20.1523 2.63672C20.1523 2.15215 20.5467 1.75781 21.0313 1.75781L25.4258 1.75781L25.4258 15.8203L21.0313 15.8203C20.5467 15.8203 20.1523 15.426 20.1523 14.9414L20.1523 2.63672ZM5.21094 10.5469L3.45313 10.5469C2.96856 10.5469 2.57422 10.1525 2.57422 9.66797C2.57422 9.1834 2.96856 8.78906 3.45313 8.78906L5.21094 8.78906C5.6961 8.78906 6.08985 8.39531 6.08985 7.91015C6.08985 7.425 5.6961 7.03125 5.21094 7.03125L3.45313 7.03125C2.96856 7.03125 2.57422 6.63691 2.57422 6.15234C2.57422 5.66777 2.96856 5.27344 3.45313 5.27344L5.21094 5.27344C5.6961 5.27344 6.08985 4.87969 6.08985 4.39453C6.08985 3.90937 5.6961 3.51562 5.21094 3.51562C4.72637 3.51562 4.33203 3.12129 4.33203 2.63672C4.33203 2.15215 4.72637 1.75781 5.21094 1.75781L12.5738 1.75781C13.4258 1.75781 14.2678 1.89433 15.0758 2.16386L18.3945 3.27012L18.3945 14.1457C17.0158 14.4076 15.6664 15.2807 14.4482 16.7098C13.2588 18.1055 12.2943 19.9559 11.8684 21.6604L11.5561 22.9102L11.3633 22.9102C10.3941 22.9102 9.60547 22.1215 9.60547 21.1523L9.60547 20.274C9.60547 19.0939 9.97461 16.8305 10.4469 15.8203L12.2422 15.8203C12.7273 15.8203 13.1211 15.4266 13.1211 14.9414C13.1211 14.4562 12.7273 14.0625 12.2422 14.0625L3.45313 14.0625C2.96856 14.0625 2.57422 13.6682 2.57422 13.1836C2.57422 12.699 2.96856 12.3047 3.45313 12.3047L5.21094 12.3047C5.6961 12.3047 6.08984 11.9109 6.08984 11.4258C6.08984 10.9406 5.6961 10.5469 5.21094 10.5469Z" fill="#ED9F9C"/>
</svg>
