<svg width="139" height="139" viewBox="0 0 139 139" fill="none" xmlns="http://www.w3.org/2000/svg">
<path d="M134.367 69.5V64.8667C134.367 29.0418 105.325 0 69.5 0C33.6751 0 4.63333 29.0418 4.63333 64.8667V69.5C2.07441 69.5 0 71.5744 0 74.1333V78.7667C0.00717386 80.5516 1.03899 82.1736 2.65258 82.9367L11.632 126.082C13.2212 133.596 19.8424 138.978 27.522 139H111.478C119.158 138.978 125.779 133.596 127.368 126.082L136.347 82.9367C137.961 82.1736 138.993 80.5516 139 78.7667V74.1333C139 71.5744 136.926 69.5 134.367 69.5ZM129.59 92.6667H118.567L120.112 83.4H131.517L129.59 92.6667ZM126.696 106.567H116.25L117.796 97.3H128.624L126.696 106.567ZM123.803 120.467H113.934L115.479 111.2H125.732L123.803 120.467ZM106.921 134.367H97.6544L98.9796 125.1H108.466L106.921 134.367ZM82.7351 125.121C82.1268 125.034 81.5088 125.191 81.0169 125.56C80.5251 125.928 80.1998 126.477 80.1126 127.085L79.0725 134.367H71.8167V129.733C71.8167 128.454 70.7795 127.417 69.5 127.417C68.2205 127.417 67.1833 128.454 67.1833 129.733V134.367H59.9275L58.8873 127.09C58.7702 126.27 58.2247 125.575 57.4561 125.267C56.6876 124.958 55.8129 125.083 55.1615 125.594C54.5101 126.106 54.1809 126.926 54.298 127.746L55.2455 134.367H46.0275L44.7117 125.1H50.9667C52.2461 125.1 53.2833 124.063 53.2833 122.783C53.2833 121.504 52.2461 120.467 50.9667 120.467H44.0398L42.717 111.2H44.0167C45.2961 111.2 46.3333 110.163 46.3333 108.883C46.3333 107.604 45.2961 106.567 44.0167 106.567H42.0544L41.6768 103.921C41.4951 102.654 40.321 101.775 39.0544 101.956C37.7877 102.138 36.9081 103.312 37.0898 104.579L37.3725 106.567H27.4455L25.9003 97.3H34.75C36.0295 97.3 37.0667 96.2628 37.0667 94.9833C37.0667 93.7039 36.0295 92.6667 34.75 92.6667H25.1289L23.5837 83.4H38.5864L63.8381 119.85C65.1406 121.694 67.257 122.79 69.5139 122.79C71.7708 122.79 73.8872 121.694 75.1897 119.85L75.2036 119.832L100.411 83.4H115.416L113.871 92.6667H104.25C102.971 92.6667 101.933 93.7039 101.933 94.9833C101.933 96.2628 102.971 97.3 104.25 97.3H113.1L111.554 106.567H101.628L101.91 104.579C102.028 103.76 101.699 102.94 101.048 102.428C100.397 101.917 99.5232 101.791 98.7548 102.099C97.9864 102.407 97.4407 103.102 97.3232 103.921L96.9455 106.567H94.9833C93.7039 106.567 92.6667 107.604 92.6667 108.883C92.6667 110.163 93.7039 111.2 94.9833 111.2H96.283L94.9602 120.467H88.0333C86.7539 120.467 85.7167 121.504 85.7167 122.783C85.7167 124.063 86.7539 125.1 88.0333 125.1H94.2883L92.9632 134.367H83.7544L84.702 127.741C84.8824 126.474 84.0018 125.301 82.7351 125.121ZM30.5337 125.1H40.0204L41.3456 134.367H32.0789L30.5337 125.1ZM18.8878 83.4L20.433 92.6667H9.4103L7.48283 83.4H18.8878ZM21.2044 97.3L22.7497 106.567H12.3038L10.3764 97.3H21.2044ZM13.2676 111.2H23.5211L25.0663 120.467H15.1973L13.2676 111.2ZM28.217 111.2H38.035L39.3602 120.467H29.7622L28.217 111.2ZM30.4804 67.3733C30.1505 68.0332 29.9829 68.7623 29.9916 69.5H18.5333V64.8667C18.5333 36.7186 41.3519 13.9 69.5 13.9C97.6481 13.9 120.467 36.7186 120.467 64.8667V69.5H109.006C109.027 68.2702 108.549 67.0842 107.683 66.2116C106.816 65.3391 105.633 64.854 104.403 64.8667H34.5971C32.8632 64.8634 31.2734 65.8314 30.4804 67.3733ZM134.367 74.1333V78.7667H103.62L106.828 74.1333H134.367ZM104.389 69.5209L71.3834 117.182C70.9309 117.758 70.2393 118.096 69.5063 118.098C68.7733 118.101 68.0795 117.767 67.6235 117.193L34.5971 69.5L104.389 69.5209ZM99.6398 120.467L100.965 111.2H110.783L109.238 120.467H99.6398ZM9.26667 64.8667C9.26667 31.6007 36.234 4.63333 69.5 4.63333C102.766 4.63333 129.733 31.6007 129.733 64.8667V69.5H125.1V64.8667C125.1 34.1596 100.207 9.26667 69.5 9.26667C38.793 9.26667 13.9 34.1596 13.9 64.8667V69.5H9.26667V64.8667ZM4.63333 74.1333H32.1692L35.3778 78.7667H4.63333V74.1333ZM16.168 125.139V125.1H25.8447L27.3807 134.367C21.9474 134.285 17.2933 130.455 16.168 125.139ZM111.619 134.367L113.162 125.1H122.839V125.139C121.713 130.458 117.055 134.289 111.619 134.367Z" fill="#9CCABD"/>
</svg>
