<svg width="28" height="28" viewBox="0 0 28 28" fill="none" xmlns="http://www.w3.org/2000/svg">
<path d="M11.8034 20.9841H3.36356" stroke="white" stroke-width="1.5" stroke-linecap="round" stroke-linejoin="round"/>
<path fill-rule="evenodd" clip-rule="evenodd" d="M24.6375 20.9845C24.6375 22.8402 23.1332 24.3445 21.2775 24.3445C19.4218 24.3445 17.9175 22.8402 17.9175 20.9845C17.9175 19.1275 19.4218 17.6245 21.2775 17.6245C23.1332 17.6245 24.6375 19.1275 24.6375 20.9845Z" stroke="white" stroke-width="1.5" stroke-linecap="round" stroke-linejoin="round"/>
<path d="M16.1965 7.3059H24.6377" stroke="white" stroke-width="1.5" stroke-linecap="round" stroke-linejoin="round"/>
<path fill-rule="evenodd" clip-rule="evenodd" d="M3.36301 7.3058C3.36301 9.16286 4.86733 10.6658 6.72301 10.6658C8.5787 10.6658 10.083 9.16286 10.083 7.3058C10.083 5.45011 8.5787 3.9458 6.72301 3.9458C4.86733 3.9458 3.36301 5.45011 3.36301 7.3058Z" stroke="white" stroke-width="1.5" stroke-linecap="round" stroke-linejoin="round"/>
</svg>
