<svg width="28" height="28" viewBox="0 0 28 28" fill="none" xmlns="http://www.w3.org/2000/svg">
<circle cx="13.7185" cy="13.7185" r="13.2185" stroke="#9B9DA6"/>
<g clip-path="url(#clip0)">
<path d="M18.9892 11.234C18.9634 10.6496 18.8689 10.2477 18.7335 9.89956C18.5938 9.52997 18.379 9.19908 18.0974 8.92401C17.8223 8.64466 17.4893 8.42759 17.124 8.2901C16.7738 8.1547 16.3741 8.06018 15.7896 8.03442C15.2007 8.00646 15.0138 8 13.5204 8C12.0269 8 11.84 8.00646 11.2533 8.03223C10.6688 8.058 10.267 8.1526 9.91893 8.28791C9.54926 8.42759 9.21837 8.64247 8.94329 8.92401C8.66394 9.19908 8.44696 9.53215 8.30938 9.89746C8.17399 10.2477 8.07947 10.6474 8.0537 11.2318C8.02575 11.8207 8.01929 12.0076 8.01929 13.5011C8.01929 14.9945 8.02575 15.1815 8.05152 15.7681C8.07729 16.3526 8.17189 16.7544 8.30728 17.1026C8.44696 17.4722 8.66394 17.8031 8.94329 18.0781C9.21837 18.3575 9.55144 18.5746 9.91674 18.7121C10.267 18.8474 10.6667 18.942 11.2512 18.9677C11.8378 18.9936 12.0248 19 13.5183 19C15.0117 19 15.1986 18.9936 15.7853 18.9677C16.3698 18.942 16.7716 18.8474 17.1197 18.7121C17.8589 18.4262 18.4434 17.8418 18.7292 17.1026C18.8645 16.7523 18.9591 16.3526 18.9849 15.7681C19.0107 15.1815 19.0171 14.9945 19.0171 13.5011C19.0171 12.0076 19.015 11.8207 18.9892 11.234ZM17.9986 15.7251C17.9749 16.2624 17.8847 16.5525 17.8095 16.7458C17.6247 17.2251 17.2443 17.6054 16.7651 17.7902C16.5717 17.8654 16.2795 17.9557 15.7444 17.9793C15.1642 18.0051 14.9902 18.0115 13.5225 18.0115C12.0549 18.0115 11.8787 18.0051 11.3006 17.9793C10.7634 17.9557 10.4733 17.8654 10.2799 17.7902C10.0414 17.7021 9.82433 17.5624 9.64814 17.3798C9.46548 17.2014 9.32581 16.9865 9.23767 16.748C9.16246 16.5546 9.07223 16.2624 9.04864 15.7273C9.02279 15.1471 9.01641 14.973 9.01641 13.5054C9.01641 12.0377 9.02279 11.8615 9.04864 11.2835C9.07223 10.7463 9.16246 10.4562 9.23767 10.2628C9.32581 10.0242 9.46548 9.80722 9.65032 9.63095C9.82861 9.4483 10.0435 9.30862 10.282 9.22057C10.4754 9.14536 10.7677 9.05512 11.3028 9.03145C11.8829 9.00568 12.057 8.99922 13.5246 8.99922C14.9945 8.99922 15.1685 9.00568 15.7466 9.03145C16.2838 9.05512 16.5739 9.14536 16.7673 9.22057C17.0058 9.30862 17.2228 9.4483 17.399 9.63095C17.5817 9.80932 17.7214 10.0242 17.8095 10.2628C17.8847 10.4562 17.9749 10.7484 17.9986 11.2835C18.0244 11.8637 18.0309 12.0377 18.0309 13.5054C18.0309 14.973 18.0244 15.1449 17.9986 15.7251Z" fill="#9B9DA6"/>
<path d="M13.5203 10.6753C11.9603 10.6753 10.6946 11.9409 10.6946 13.501C10.6946 15.0611 11.9603 16.3268 13.5203 16.3268C15.0804 16.3268 16.3461 15.0611 16.3461 13.501C16.3461 11.9409 15.0804 10.6753 13.5203 10.6753ZM13.5203 15.334C12.5083 15.334 11.6873 14.5132 11.6873 13.501C11.6873 12.4889 12.5083 11.668 13.5203 11.668C14.5325 11.668 15.3533 12.4889 15.3533 13.501C15.3533 14.5132 14.5325 15.334 13.5203 15.334Z" fill="#9B9DA6"/>
<path d="M17.1176 10.5636C17.1176 10.9279 16.8222 11.2233 16.4578 11.2233C16.0935 11.2233 15.7981 10.9279 15.7981 10.5636C15.7981 10.1992 16.0935 9.90393 16.4578 9.90393C16.8222 9.90393 17.1176 10.1992 17.1176 10.5636Z" fill="#9B9DA6"/>
</g>
<defs>
<clipPath id="clip0">
<rect width="11" height="11" fill="white" transform="translate(8 8)"/>
</clipPath>
</defs>
</svg>
