<svg width="28" height="25" viewBox="0 0 28 25" fill="none" xmlns="http://www.w3.org/2000/svg">
<path d="M26.5104 13.5742C26.9287 13.1072 27.1836 12.4908 27.1836 11.8164C27.1836 10.3627 26.0006 9.17969 24.5469 9.17969H19.4293C19.9361 7.6416 20.1523 5.60078 20.1523 4.72598V3.84766C20.1523 1.90937 18.575 0.332031 16.6367 0.332031H15.7578C15.3547 0.332031 15.0031 0.60625 14.9053 0.997656L14.4266 2.91309C13.7557 5.59551 11.6258 8.55508 9.42148 9.09297C9.03535 8.11563 8.08203 7.42188 6.96875 7.42188H1.69531C1.21016 7.42188 0.816406 7.81563 0.816406 8.30078V24.1211C0.816406 24.6063 1.21016 25 1.69531 25H6.96875C8.01699 25 8.92402 24.3854 9.34883 23.4971L12.3688 24.5037C13.3561 24.833 14.385 25 15.4262 25H22.7891C24.2428 25 25.4258 23.817 25.4258 22.3633C25.4258 22.0205 25.3602 21.6924 25.2406 21.3918C26.3586 21.0865 27.1836 20.0617 27.1836 18.8477C27.1836 18.1732 26.9287 17.5568 26.5104 17.0898C26.9287 16.6229 27.1836 16.0064 27.1836 15.332C27.1836 14.6576 26.9287 14.0412 26.5104 13.5742ZM7.84766 22.3633C7.84766 22.8479 7.45332 23.2422 6.96875 23.2422H2.57422V9.17969H6.96875C7.45332 9.17969 7.84766 9.57402 7.84766 10.0586V22.3633ZM22.7891 14.4531H24.5469C25.0314 14.4531 25.4258 14.8475 25.4258 15.332C25.4258 15.8166 25.0314 16.2109 24.5469 16.2109H22.7891C22.3039 16.2109 21.9102 16.6047 21.9102 17.0898C21.9102 17.575 22.3039 17.9688 22.7891 17.9688H24.5469C25.0314 17.9688 25.4258 18.3631 25.4258 18.8477C25.4258 19.3322 25.0314 19.7266 24.5469 19.7266H22.7891C22.3039 19.7266 21.9102 20.1203 21.9102 20.6055C21.9102 21.0906 22.3039 21.4844 22.7891 21.4844C23.2736 21.4844 23.668 21.8787 23.668 22.3633C23.668 22.8479 23.2736 23.2422 22.7891 23.2422H15.4262C14.5742 23.2422 13.7322 23.1057 12.9242 22.8361L9.60547 21.7299V10.8543C10.9842 10.5924 12.3336 9.71934 13.5518 8.29023C14.7412 6.89453 15.7057 5.04414 16.1316 3.33965L16.4439 2.08984H16.6367C17.6059 2.08984 18.3945 2.87852 18.3945 3.84766V4.72598C18.3945 5.90605 18.0254 8.16953 17.5531 9.17969H15.7578C15.2727 9.17969 14.8789 9.57344 14.8789 10.0586C14.8789 10.5437 15.2727 10.9375 15.7578 10.9375H24.5469C25.0314 10.9375 25.4258 11.3318 25.4258 11.8164C25.4258 12.301 25.0314 12.6953 24.5469 12.6953H22.7891C22.3039 12.6953 21.9102 13.0891 21.9102 13.5742C21.9102 14.0594 22.3039 14.4531 22.7891 14.4531Z" fill="#01A41B"/>
</svg>
