<svg width="33" height="35" viewBox="0 0 33 35" fill="none" xmlns="http://www.w3.org/2000/svg">
<path fill-rule="evenodd" clip-rule="evenodd" d="M15.5597 34.7641C16.133 34.5853 16.5763 34.1281 16.8224 33.4617C17.0144 32.9418 17.1143 32.0764 17.0643 31.3671L17.0211 30.7533L17.4144 29.7545C18.7158 26.4497 20.3282 23.2875 21.5603 21.6236C21.8301 21.2593 22.3072 20.7122 22.6204 20.4079C23.26 19.7866 23.564 19.3939 24.0162 18.6049L24.3269 18.0629L24.7727 18.2169C25.2074 18.3669 25.2837 18.3708 27.8426 18.3725C30.6352 18.3744 30.7981 18.3587 31.4425 18.0261C32.0079 17.7344 32.5836 17.0387 32.8505 16.3248C32.97 16.0055 32.9772 15.6842 32.9961 9.84064C33.0084 6.03143 32.9911 3.53035 32.9507 3.26641C32.7548 1.9896 31.7258 0.949104 30.478 0.766269C30.248 0.732605 29.0451 0.704921 27.8049 0.704788C25.3362 0.704585 24.9198 0.749336 24.322 1.07899L23.9933 1.26028L22.7821 1.11413C19.6812 0.739928 17.5047 0.600905 13.106 0.496016C10.6806 0.438162 9.65215 0.438162 8.96096 0.496149C6.22361 0.725683 4.1738 1.60612 3.13318 2.99931C2.542 3.79086 2.30425 4.52065 2.2945 5.57384C2.2884 6.2355 2.28501 6.24941 2.07246 6.48096C1.46298 7.14517 1.00319 7.96164 0.821471 8.70265C0.670458 9.31841 0.680605 10.2943 0.844813 10.9449L0.976324 11.466L0.774382 11.7634C0.23699 12.5547 -0.056406 13.5597 0.00905028 14.3845C0.0605143 15.0338 0.324137 15.8441 0.649832 16.3548L0.919424 16.7774L0.819677 17.0739C0.543256 17.896 0.545713 18.9375 0.826044 19.7181C1.00511 20.2169 1.49899 20.9142 1.93146 21.2788C3.57361 22.6636 6.77672 22.9691 10.9415 22.1382C11.4986 22.027 11.9962 21.9359 12.0472 21.9358C12.1228 21.9356 12.1318 22.0417 12.0963 22.5099C12.0422 23.2225 11.8467 24.0687 11.3365 25.7991C10.8383 27.4888 10.684 28.2114 10.6016 29.2422C10.5309 30.1275 10.5837 30.9043 10.7604 31.5778C11.1561 33.0857 12.3481 34.2836 13.8355 34.668C14.3662 34.8052 15.2669 34.8554 15.5597 34.7641ZM14.158 32.7474C13.1672 32.4093 12.6618 31.6994 12.5241 30.4524C12.4113 29.4309 12.6028 28.2679 13.2083 26.2979C13.8452 24.2259 14.0814 22.9505 14.0286 21.8703C13.967 20.6116 13.4073 19.9216 12.4465 19.9201C12.3159 19.9199 11.6892 20.0264 11.0538 20.1568C9.09579 20.5586 8.5848 20.6158 6.9142 20.6207C5.68622 20.6244 5.27279 20.6013 4.79343 20.5026C2.79554 20.0912 2.07564 18.9299 2.8045 17.2944C3.13298 16.5573 3.11388 16.4186 2.59473 15.773C1.6697 14.6223 1.70836 13.6007 2.72326 12.3781C3.08636 11.9406 3.12137 11.5841 2.86034 10.9811C2.69142 10.5907 2.67206 10.4704 2.67093 9.80704C2.6698 9.12463 2.68466 9.03714 2.86405 8.66636C2.99762 8.39026 3.23989 8.08393 3.63933 7.68614C3.98167 7.34513 4.23972 7.02906 4.26764 6.91657C4.29364 6.81155 4.27726 6.44756 4.23117 6.10763C4.13328 5.3851 4.1941 4.97279 4.47602 4.44794C4.95784 3.55098 6.23781 2.88085 8.12732 2.53621C8.68209 2.43502 9.15203 2.42071 11.5234 2.43281C16.058 2.45585 19.5508 2.64581 22.4662 3.02781L22.7646 3.06691L22.743 9.0239C22.7279 13.1851 22.7443 15.196 22.7974 15.6944C22.8731 16.4049 22.8727 16.4099 22.6829 16.9039C22.3467 17.7792 21.983 18.3201 21.1743 19.1471C19.9222 20.4275 18.92 21.9508 17.6626 24.4846C16.8756 26.0706 16.1717 27.6626 15.5446 29.2747L15.1074 30.3986L15.1227 31.3913C15.131 31.9374 15.1141 32.4975 15.0851 32.6361C15.0364 32.8689 15.0148 32.8881 14.8011 32.8881C14.674 32.8881 14.3845 32.8248 14.158 32.7474ZM25.1846 16.2744C25.0641 16.1913 24.903 16.0379 24.8266 15.9336C24.6882 15.7443 24.6879 15.7289 24.6879 9.57886L24.6879 3.41383L24.8667 3.14009C25.1836 2.65488 25.2632 2.64292 28.0157 2.66516C30.3198 2.68378 30.4223 2.69003 30.5981 2.82307C30.6987 2.89927 30.8426 3.04508 30.9179 3.14714C31.0533 3.33092 31.0547 3.39018 31.0722 9.46349L31.0898 15.5942L30.9379 15.8853C30.6545 16.4282 30.6696 16.4256 27.8655 16.4256C25.4219 16.4256 25.4023 16.4246 25.1846 16.2744Z" fill="#D2DBDF"/>
</svg>
