<svg width="33" height="35" viewBox="0 0 33 35" fill="none" xmlns="http://www.w3.org/2000/svg">
<path fill-rule="evenodd" clip-rule="evenodd" d="M17.4403 0.498812C16.867 0.677614 16.4237 1.1348 16.1776 1.80123C15.9856 2.3211 15.8857 3.18649 15.9357 3.89579L15.9789 4.5096L15.5856 5.50844C14.2842 8.81323 12.6718 11.9754 11.4397 13.6393C11.1699 14.0037 10.6928 14.5507 10.3796 14.855C9.74003 15.4764 9.43595 15.869 8.98378 16.658L8.67308 17.2L8.22734 17.0461C7.79261 16.896 7.71635 16.8921 5.1574 16.8904C2.3648 16.8886 2.20192 16.9043 1.55749 17.2368C0.992115 17.5286 0.416393 18.2242 0.149456 18.9381C0.0300141 19.2574 0.0227852 19.5787 0.00388406 25.4223C-0.00838511 29.2315 0.00885804 31.7326 0.0493131 31.9965C0.245155 33.2733 1.27417 34.3138 2.52198 34.4967C2.75198 34.5303 3.95489 34.558 5.19507 34.5582C7.66382 34.5584 8.08024 34.5136 8.67805 34.184L9.00673 34.0027L10.2179 34.1488C13.3188 34.523 15.4953 34.662 19.8941 34.7669C22.3194 34.8248 23.3479 34.8248 24.039 34.7668C26.7764 34.5373 28.8262 33.6568 29.8668 32.2636C30.458 31.4721 30.6958 30.7423 30.7055 29.6891C30.7116 29.0274 30.715 29.0135 30.9275 28.782C31.537 28.1178 31.9968 27.3013 32.1785 26.5603C32.3295 25.9445 32.3194 24.9686 32.1552 24.318L32.0237 23.797L32.2256 23.4996C32.763 22.7083 33.0564 21.7033 32.991 20.8784C32.9395 20.2292 32.6759 19.4188 32.3502 18.9081L32.0806 18.4856L32.1803 18.189C32.4567 17.367 32.4543 16.3254 32.174 15.5448C31.9949 15.046 31.501 14.3488 31.0685 13.9841C29.4264 12.5993 26.2233 12.2938 22.0585 13.1248C21.5014 13.2359 21.0038 13.327 20.9528 13.3272C20.8772 13.3274 20.8682 13.2212 20.9037 12.753C20.9578 12.0405 21.1533 11.1942 21.6635 9.4638C22.1617 7.77414 22.316 7.05154 22.3984 6.02072C22.4691 5.13545 22.4163 4.35869 22.2396 3.68514C21.8439 2.17724 20.6519 0.979381 19.1645 0.594899C18.6338 0.457756 17.7331 0.407563 17.4403 0.498812ZM18.842 2.5155C19.8328 2.85362 20.3382 3.56358 20.4759 4.81056C20.5887 5.83204 20.3972 6.99503 19.7917 8.96508C19.1549 11.037 18.9186 12.3124 18.9714 13.3926C19.033 14.6514 19.5927 15.3414 20.5535 15.3428C20.6841 15.343 21.3108 15.2365 21.9462 15.1062C23.9042 14.7044 24.4152 14.6471 26.0858 14.6422C27.3138 14.6386 27.7272 14.6616 28.2066 14.7603C30.2045 15.1718 30.9244 16.333 30.1955 17.9685C29.867 18.7056 29.8861 18.8443 30.4053 19.49C31.3303 20.6407 31.2916 21.6622 30.2768 22.8849C29.9136 23.3223 29.8786 23.6788 30.1397 24.2819C30.3086 24.6722 30.3279 24.7925 30.3291 25.4559C30.3302 26.1383 30.3153 26.2258 30.136 26.5966C30.0024 26.8727 29.7601 27.179 29.3607 27.5768C29.0183 27.9178 28.7603 28.2339 28.7324 28.3464C28.7064 28.4514 28.7227 28.8154 28.7688 29.1553C28.8667 29.8778 28.8059 30.2901 28.524 30.815C28.0422 31.712 26.7622 32.3821 24.8727 32.7267C24.3179 32.8279 23.848 32.8422 21.4766 32.8301C16.942 32.8071 13.4492 32.6171 10.5338 32.2351L10.2354 32.196L10.257 26.239C10.2721 22.0778 10.2557 20.0669 10.2026 19.5685C10.1269 18.858 10.1273 18.853 10.3171 18.359C10.6533 17.4837 11.017 16.9429 11.8257 16.1158C13.0778 14.8355 14.08 13.3122 15.3374 10.7783C16.1244 9.19233 16.8283 7.60038 17.4554 5.9882L17.8926 4.86439L17.8773 3.8716C17.869 3.32558 17.8859 2.76546 17.9149 2.62684C17.9636 2.39408 17.9852 2.37486 18.1989 2.37486C18.326 2.37486 18.6155 2.43816 18.842 2.5155ZM7.81536 18.9885C7.93593 19.0717 8.09702 19.225 8.17336 19.3294C8.31177 19.5187 8.3121 19.534 8.3121 25.6841V31.8491L8.1333 32.1229C7.81642 32.6081 7.73677 32.62 4.9843 32.5978C2.68015 32.5792 2.57769 32.5729 2.40194 32.4399C2.30127 32.3637 2.15735 32.2179 2.08215 32.1158C1.94666 31.932 1.94526 31.8728 1.92782 25.7995L1.91018 19.6687L2.06212 19.3777C2.3455 18.8347 2.33038 18.8373 5.13452 18.8373C7.57814 18.8373 7.5977 18.8384 7.81536 18.9885Z" fill="#D2DBDF"/>
</svg>
