<svg width="23" height="24" viewBox="0 0 23 24" fill="none" xmlns="http://www.w3.org/2000/svg">
<g clip-path="url(#clip0)">
<path d="M22.2807 10.9345H13.1767C12.78 10.9345 12.458 10.6079 12.458 10.2055C12.458 9.80313 12.78 9.47656 13.1767 9.47656H22.2807C22.6774 9.47656 22.9994 9.80313 22.9994 10.2055C22.9994 10.6079 22.6774 10.9345 22.2807 10.9345Z" fill="white"/>
<path d="M18.6871 14.5811C18.503 14.5811 18.3191 14.5101 18.1791 14.3674C17.8983 14.0825 17.8983 13.6208 18.1791 13.3361L21.2649 10.2066L18.1791 7.07686C17.8983 6.79211 17.8983 6.33047 18.1791 6.04572C18.46 5.7608 18.9152 5.7608 19.1959 6.04572L22.7896 9.69046C23.0703 9.9752 23.0703 10.4368 22.7896 10.7216L19.1959 14.3663C19.055 14.5101 18.8711 14.5811 18.6871 14.5811Z" fill="white"/>
<path d="M7.66649 23.3263C7.46136 23.3263 7.26676 23.2971 7.07234 23.2359L1.30515 21.2872C0.520446 21.0092 0 20.2676 0 19.4387V1.94392C0 0.871854 0.85963 0 1.91667 0C2.12161 0 2.31621 0.0291864 2.51081 0.0904066L8.27783 2.03913C9.06271 2.31711 9.58298 3.0587 9.58298 3.88766V21.3824C9.58298 22.4545 8.72352 23.3263 7.66649 23.3263ZM1.91667 1.4579C1.65311 1.4579 1.43746 1.67662 1.43746 1.94392V19.4387C1.43746 19.6456 1.5745 19.838 1.76997 19.9071L7.51014 21.8471C7.55138 21.8606 7.60507 21.8684 7.66649 21.8684C7.93004 21.8684 8.14552 21.6497 8.14552 21.3824V3.88766C8.14552 3.68069 8.00848 3.48831 7.813 3.41926L2.07283 1.47925C2.0316 1.46573 1.9779 1.4579 1.91667 1.4579Z" fill="white"/>
<path d="M14.6141 7.7755C14.2174 7.7755 13.8954 7.44893 13.8954 7.04655V2.67287C13.8954 2.00318 13.3579 1.4579 12.6976 1.4579H1.91673C1.51999 1.4579 1.198 1.13133 1.198 0.728948C1.198 0.326567 1.51999 0 1.91673 0H12.6976C14.1514 0 15.3329 1.19842 15.3329 2.67287V7.04655C15.3329 7.44893 15.0109 7.7755 14.6141 7.7755Z" fill="white"/>
<path d="M12.6978 20.4122H8.86448C8.46774 20.4122 8.14575 20.0856 8.14575 19.6833C8.14575 19.2809 8.46774 18.9543 8.86448 18.9543H12.6978C13.3581 18.9543 13.8956 18.409 13.8956 17.7393V13.3657C13.8956 12.9633 14.2176 12.6367 14.6143 12.6367C15.011 12.6367 15.333 12.9633 15.333 13.3657V17.7393C15.333 19.2138 14.1516 20.4122 12.6978 20.4122Z" fill="white"/>
</g>
<defs>
<clipPath id="clip0">
<rect width="23" height="23.3271" fill="white"/>
</clipPath>
</defs>
</svg>
