<svg width="330" height="57" viewBox="0 0 330 57" fill="none" xmlns="http://www.w3.org/2000/svg">
<path d="M228.53 14.6426L226.988 25.0981L227.502 24.5839H231.444L229.559 14.6426H228.53ZM229.045 3.67291C229.045 4.35852 229.902 4.70132 231.444 4.70132C232.815 7.78654 235.729 19.099 240.7 38.6388L239.671 39.4958V40.5242L240.186 41.8954H239.671L237.786 42.4096L232.473 28.5261H231.958C227.845 28.5261 225.617 29.7259 225.617 31.9541C224.76 38.6388 223.731 42.4096 222.703 43.438H221.332L220.303 42.4096V40.5242C220.303 34.1824 221.16 28.6975 222.703 23.7269L222.189 23.2127V22.6985C222.531 20.813 223.046 19.7846 223.56 19.7846L223.046 19.2704C224.245 11.7288 225.274 7.78654 225.959 7.27234L225.445 5.90113C225.445 4.01571 226.645 2.9873 228.873 2.9873V3.67291H229.045ZM196.821 14.4712V15.671L197.335 18.5848H196.821L198.535 29.0403C202.992 29.0403 206.077 24.9267 207.962 16.6994L209.162 14.9854L208.476 14.4712H196.821ZM193.222 8.64355C207.619 8.64355 214.818 11.2146 214.818 16.1852C214.304 19.2704 213.618 20.8131 213.104 20.8131L213.618 21.3273V21.8415C212.59 30.4115 208.476 34.6966 201.278 34.6966L198.878 35.2108C197.85 41.8954 196.65 45.1521 195.45 45.1521C194.422 43.9522 193.565 43.438 192.536 43.438V35.8964L191.85 33.4968L192.536 32.8111V32.2969L190.136 11.9002C190.822 11.9002 191.336 10.8718 191.85 8.98635H193.05V8.64355H193.222ZM172.482 14.6426L170.94 25.0981L171.454 24.5839H175.396L173.511 14.6426H172.482ZM172.996 3.67291C172.996 4.35852 173.853 4.70132 175.396 4.70132C176.767 7.78654 179.681 19.099 184.652 38.6388L183.623 39.4958V40.5242L184.137 41.8954H183.623L181.738 42.4096L176.424 28.5261H175.91C171.797 28.5261 169.568 29.7259 169.568 31.9541C168.711 38.6388 167.683 42.4096 166.654 43.438H165.283L164.255 42.4096V40.5242C164.255 34.1824 165.112 28.6975 166.654 23.7269L166.14 23.2127V22.6985C166.483 20.813 166.997 19.7846 167.511 19.7846L166.997 19.2704C168.197 11.7288 169.226 7.78654 169.911 7.27234L169.397 5.90113C169.397 4.01571 170.597 2.9873 172.825 2.9873V3.67291H172.996ZM133.574 7.95794H134.602C134.602 8.81495 135.459 9.15775 137.002 9.15775L139.402 18.5848L138.887 19.099V19.6132L139.402 22.0129C144.372 17.0422 147.8 14.4712 149.857 14.4712V15.671L149.172 16.3566V16.8708H150.371V17.8992C149.514 19.956 147.115 22.6985 143.344 26.1265C143.344 27.3263 149.343 31.0971 161.512 37.2676L162.027 37.9532V38.4674L159.627 40.1814C153.457 39.3244 147.286 36.582 140.944 31.9541H139.744L142.144 43.0952L140.43 45.4949H137.516C136.659 45.4949 134.602 39.6672 131.689 28.0119L131.174 20.2988H131.689L131.174 19.6132V17.8992L131.689 17.385L131.174 15.671C131.174 12.243 132.203 10.0148 134.088 8.64355L133.574 7.95794ZM123.119 5.72973C125.518 6.07253 126.547 6.58673 126.547 7.44374V9.84336C114.891 10.529 109.064 11.386 109.064 12.243L109.578 19.7846L111.292 20.4702L114.206 19.7846H119.519C121.919 20.1274 123.119 20.6416 123.119 21.4987V22.0129C123.119 23.8983 119.176 24.9267 111.463 24.9267H110.263V25.4409L111.977 37.0962V38.4674L117.291 40.1814H123.119L124.833 41.8954V42.4096C124.833 44.295 121.747 45.3235 115.405 45.3235C113.006 45.3235 110.606 43.7808 108.378 40.6956L108.892 40.1814V39.4958C107.521 39.153 106.493 37.9532 105.464 36.0678L106.664 34.868C105.807 34.868 105.293 33.4968 104.95 30.7543H105.636L103.922 21.3273H104.607L103.75 20.8131V14.4712L104.436 13.7856L103.75 13.2714V12.7572L104.436 12.243L103.236 9.32916C104.436 6.92954 109.064 5.72973 117.291 5.72973H123.119Z" fill="white"/>
<path d="M74.2691 6.41528C83.182 10.0147 85.0674 8.8149 91.752 6.41528C95.5229 8.9863 92.0949 13.6141 94.8373 33.4967C96.0371 42.2382 95.1801 48.58 96.2085 51.4938C95.8657 54.9219 95.5229 56.8073 94.8373 56.8073H93.4661C91.4092 51.1511 90.895 45.3234 90.895 39.4958V38.6387L90.3808 33.3253L90.038 17.7278L89.181 16.6994C80.611 18.5848 84.039 16.3566 78.8969 18.0706H78.5541C79.0683 18.0706 79.5825 27.6691 80.2682 46.6946L80.611 47.3802C80.0967 49.6084 79.4111 50.9796 78.8969 51.1511H76.6687C75.6403 49.9512 74.6119 42.581 73.2407 29.3831H73.7549L72.3837 18.9276V11.3859L72.5551 9.84331L72.2123 7.61509L74.2691 6.41528Z" fill="white"/>
<path fill-rule="evenodd" clip-rule="evenodd" d="M3.30894 5.38693L45.3023 0.416289C47.3591 0.244888 49.2445 1.6161 49.5873 3.67292L54.558 45.6663C54.7294 47.7231 53.3581 49.6085 51.3013 49.9513L9.30799 54.9219C7.25117 55.0933 5.36575 53.7221 5.02295 51.6653L0.0523113 9.67196C-0.290491 7.44375 1.08072 5.55833 3.30894 5.38693Z" fill="#FDCA00"/>
<path d="M255.955 20.4701C252.355 20.4701 250.47 18.4132 250.47 14.2996C250.47 10.186 252.355 8.12915 255.955 8.12915C259.554 8.12915 261.439 10.186 261.439 14.2996C261.439 18.2418 259.554 20.2986 255.955 20.4701ZM255.955 17.7276C257.326 17.7276 258.183 16.5278 258.183 14.2996C258.183 12.0714 257.326 10.8716 255.955 10.8716C254.583 10.8716 253.726 12.0714 253.726 14.2996C253.726 16.5278 254.412 17.7276 255.955 17.7276Z" fill="#FDCA00"/>
<path d="M267.439 15.6708V19.613C267.439 20.2986 266.924 20.47 266.067 20.47H265.382C264.525 20.47 264.182 20.1272 264.01 19.613V9.15754C264.01 8.47194 264.525 8.30054 265.382 8.30054H266.067C266.924 8.30054 267.267 8.64334 267.439 9.15754V13.4426H272.409V9.15754C272.409 8.47194 272.923 8.30054 273.78 8.30054H274.466C275.323 8.30054 275.666 8.64334 275.837 9.15754V19.613C275.837 20.2986 275.323 20.47 274.466 20.47H273.78C272.923 20.47 272.581 20.1272 272.409 19.613V15.6708H267.439Z" fill="#FDCA00"/>
<path d="M282.522 11.2143V15.8422C282.522 17.7276 281.493 19.2702 279.608 20.47C279.437 20.47 279.265 20.6414 279.265 20.6414C278.922 20.6414 278.408 20.2986 278.065 19.7844C277.894 19.613 277.723 19.2702 277.723 19.0988C277.723 18.756 277.894 18.4132 278.408 18.0704C279.094 17.3848 279.265 16.6992 279.265 15.6708V8.47192H289.378V19.613C289.378 20.2986 289.035 20.6414 288.178 20.6414H287.321C286.464 20.6414 286.121 20.2986 286.121 19.613V11.3857H282.522V11.2143Z" fill="#FDCA00"/>
<path d="M298.805 15.8422V14.1282C296.234 14.8138 295.034 15.6708 295.034 16.3564C295.034 17.2134 295.548 17.5562 296.577 17.5562C297.434 17.899 298.291 17.2134 298.805 15.8422ZM298.805 19.613C298.462 20.2986 297.605 20.47 296.234 20.47C293.491 20.2986 291.949 18.9274 291.777 16.3564C291.777 14.2996 292.977 13.0998 295.205 12.5856C297.434 12.0714 298.634 11.5572 298.634 11.3858C298.634 11.043 298.119 11.043 297.262 11.043C296.405 11.043 295.891 11.2144 295.891 11.3858C295.891 11.7286 295.377 11.9 294.52 11.9C294.348 11.9 294.177 11.9 294.177 11.9C293.149 11.9 292.634 11.5572 292.634 11.2144C292.634 9.32895 294.177 8.30054 297.262 8.30054C300.348 8.30054 301.89 9.84315 301.89 13.0998V19.613C301.89 20.2986 301.376 20.47 300.519 20.47H299.833C299.319 20.47 298.805 20.1272 298.805 19.613Z" fill="#FDCA00"/>
<path d="M310.117 5.90097C310.974 5.90097 311.489 5.72957 311.66 5.38676C311.831 5.04396 312.003 4.87256 312.346 4.87256H312.517C312.86 4.87256 313.203 5.04396 313.203 5.38676C312.86 7.10078 312.003 7.95778 310.289 7.95778C308.575 7.95778 307.546 7.10078 307.375 5.38676C307.375 5.04396 307.546 4.87256 308.061 4.87256H308.232C308.575 4.87256 308.746 5.04396 308.918 5.38676C308.918 5.72957 309.432 5.90097 310.117 5.90097ZM315.088 9.15759V19.4417C315.088 20.1273 314.574 20.4701 313.717 20.4701H313.203C312.346 20.4701 311.831 20.1273 311.831 19.4417V14.1282L308.403 19.6131C308.061 20.1273 307.546 20.2987 307.032 20.2987H306.689C305.832 20.2987 305.318 19.9559 305.318 19.2703V8.81479C305.49 8.12919 305.832 7.78638 306.689 7.78638H307.204C308.061 7.78638 308.575 8.12919 308.575 8.81479V13.9568L311.831 8.64339C312.174 8.12919 312.517 7.95778 313.203 7.95778H313.717C314.574 8.12919 315.088 8.47199 315.088 9.15759Z" fill="#FDCA00"/>
<path d="M321.601 15.6708V19.613C321.601 20.2986 321.087 20.47 320.23 20.47H319.545C318.688 20.47 318.345 20.1272 318.173 19.613V9.15754C318.173 8.47194 318.688 8.30054 319.545 8.30054H320.23C321.087 8.30054 321.43 8.64334 321.601 9.15754V13.4426H326.572V9.15754C326.572 8.47194 327.086 8.30054 327.943 8.30054H328.629C329.486 8.30054 329.829 8.64334 330 9.15754V19.613C330 20.2986 329.486 20.47 328.629 20.47H327.943C327.086 20.47 326.743 20.1272 326.572 19.613V15.6708H321.601Z" fill="#FDCA00"/>
<path d="M254.412 30.2401C254.926 29.8973 255.44 29.7259 255.955 29.7259C259.554 29.7259 261.268 31.7827 261.439 35.8963C261.439 40.01 259.554 42.0668 255.955 42.0668C252.355 42.0668 250.47 39.8386 250.47 35.3821C250.641 29.3831 253.041 26.4693 257.326 26.2979C258.011 26.2979 258.697 26.2979 259.211 26.4693C259.383 26.4693 259.383 26.4693 259.554 26.4693C259.725 26.4693 259.897 26.4693 259.897 26.4693C260.24 26.2979 260.411 26.2979 260.754 26.2979C261.097 26.2979 261.268 26.2979 261.611 26.4693C262.125 26.6407 262.468 26.9835 262.468 27.4977C262.468 27.4977 262.468 27.6691 262.468 27.8405C261.611 28.6975 260.754 29.0403 259.725 29.0403C259.554 29.0403 259.554 29.0403 259.383 29.0403C258.354 29.0403 257.84 28.8689 257.497 28.8689H257.326C255.783 28.6975 254.926 29.2117 254.412 30.2401ZM253.726 35.8963C253.726 38.2959 254.412 39.4958 255.955 39.4958C257.497 39.4958 258.183 38.4674 258.183 36.2391C258.183 34.8679 258.011 33.8395 257.669 33.3253C257.326 32.8111 256.64 32.4683 255.955 32.4683C254.583 32.2969 253.898 33.4967 253.726 35.8963Z" fill="#FDCA00"/>
<path d="M274.123 30.7543V41.0384C274.123 41.724 273.609 42.0668 272.752 42.0668H272.238C271.381 42.0668 270.867 41.724 270.867 41.0384V35.7249L267.439 41.2098C267.096 41.724 266.581 41.8954 266.067 41.8954H265.724C264.867 41.8954 264.353 41.5526 264.353 40.8669V30.4115C264.525 29.7259 264.867 29.3831 265.724 29.3831H266.239C267.096 29.3831 267.61 29.7259 267.61 30.4115V35.5535L270.867 30.2401C271.209 29.7259 271.552 29.5545 272.238 29.5545H272.752C273.609 29.7259 273.952 30.0687 274.123 30.7543Z" fill="#FDCA00"/>
<path d="M277.037 35.8963C277.037 31.7826 278.922 29.7258 282.693 29.7258C285.093 29.7258 286.635 30.5828 287.492 32.1254C287.492 32.2969 287.664 32.2969 287.664 32.4683C287.664 32.6397 287.492 32.9825 287.321 33.1539L285.95 33.6681C285.778 33.6681 285.607 33.8395 285.436 33.8395C285.093 33.8395 284.75 33.6681 284.75 33.4967C284.407 32.8111 283.722 32.6397 282.865 32.6397C281.322 32.6397 280.636 33.8395 280.636 36.0677C280.636 38.2959 281.493 39.3243 282.865 39.3243C283.722 39.3243 284.407 38.9815 284.75 38.4673C284.921 38.1245 285.093 38.1245 285.436 38.1245C285.607 38.1245 285.778 38.1245 285.95 38.2959L287.321 38.9815C287.664 39.1529 287.664 39.3243 287.664 39.6671C287.664 39.8385 287.664 39.8385 287.492 40.0099C286.635 41.5525 284.921 42.4095 282.693 42.4095C278.922 41.8953 277.037 39.8385 277.037 35.8963Z" fill="#FDCA00"/>
<path d="M296.577 32.6396V41.2097C296.577 41.8953 296.063 42.0667 295.205 42.0667H294.52C293.663 42.0667 293.32 41.7239 293.149 41.2097V32.6396H290.063C289.378 32.6396 289.035 32.2968 288.864 31.6112V30.9256C288.864 30.24 289.206 29.8972 290.063 29.8972H299.491C300.176 29.8972 300.519 30.24 300.69 30.9256V31.6112C300.69 32.2968 300.348 32.6396 299.491 32.6396H296.577Z" fill="#FDCA00"/>
<path d="M306.004 35.2107V38.8101C306.175 39.1529 306.861 39.1529 307.718 39.1529C309.26 39.1529 310.117 37.9531 310.289 35.7249C310.289 33.6681 309.603 32.6397 308.403 32.6397C307.204 32.6397 306.347 33.4967 306.004 35.2107ZM302.747 30.5828C302.747 30.0686 303.261 29.7258 304.118 29.7258H304.804C305.661 29.7258 306.004 30.0686 306.175 30.5828C306.689 30.0686 307.375 29.7258 308.403 29.7258C311.831 29.7258 313.545 31.7826 313.545 35.8963C313.203 39.8385 311.317 41.8953 308.232 42.0667C307.204 42.0667 306.518 41.8953 306.175 41.5525V45.6662C306.175 46.1804 305.661 46.5232 304.804 46.5232H304.118C303.261 46.5232 302.919 46.1804 302.747 45.6662V40.0099C302.747 40.0099 302.747 40.0099 302.747 39.8385V30.5828Z" fill="#FDCA00"/>
<path d="M321.259 41.8953C317.659 41.8953 315.774 39.8385 315.774 35.7249C315.774 31.6113 317.659 29.5544 321.259 29.5544C324.858 29.5544 326.743 31.6113 326.743 35.7249C326.915 39.8385 325.029 41.8953 321.259 41.8953ZM321.259 39.3243C322.63 39.3243 323.315 38.1245 323.487 35.8963C323.487 33.6681 322.63 32.4683 321.259 32.4683C319.887 32.4683 319.03 33.6681 319.03 35.8963C319.202 38.1245 319.887 39.3243 321.259 39.3243Z" fill="#FDCA00"/>
<path d="M13.0788 21.4988L12.0504 12.5859L5.36572 13.2715L6.39413 22.1844L8.62235 22.013L7.76534 14.9856L9.99356 14.8142L10.8506 21.6702L13.0788 21.4988Z" fill="black"/>
<path d="M20.7919 20.4702L20.6205 18.5848L16.8496 18.9276L16.6782 17.385L19.9349 17.0422L19.5921 15.1568L16.3354 15.4996L16.164 13.957L20.1063 13.6142L19.7635 11.5574L13.7644 12.243L14.7928 21.1559L20.7919 20.4702Z" fill="black"/>
<path d="M28.6763 19.6133L27.6479 10.7004L25.4197 10.8718L25.9339 14.6427C25.7625 14.8141 25.2483 14.9855 24.7341 14.9855C24.2199 14.9855 23.7057 14.8141 23.7057 14.2999L23.3629 11.2146L21.1346 11.386L21.4774 14.9855C21.6488 16.3567 22.8487 17.2137 24.0485 17.0423C24.9055 16.8709 25.7625 16.6995 25.9339 16.5281L26.2767 19.7847L28.6763 19.6133Z" fill="black"/>
<path d="M31.7615 8.64366C31.7615 8.12945 31.2473 7.78665 30.7331 7.78665C30.2189 7.78665 29.7047 8.30085 29.8761 8.81506C29.8761 9.32926 30.3903 9.84347 30.9045 9.67207C31.4187 9.84347 31.9329 9.32926 31.7615 8.64366ZM34.6754 8.30085C34.6754 7.78665 34.1611 7.44385 33.6469 7.44385C33.1327 7.44385 32.6185 7.95805 32.7899 8.47226C32.7899 8.98646 33.3041 9.50067 33.8183 9.32926C34.3326 9.50067 34.8468 8.98646 34.6754 8.30085ZM36.5608 18.5849L36.3894 16.6995L32.6185 17.2137L32.4471 15.6711L35.7038 15.3283L35.5324 13.4429L32.2757 13.7857L32.1043 12.2431L35.8752 11.7289L35.7038 9.84347L29.7047 10.5291L30.7331 19.4419L36.5608 18.5849Z" fill="black"/>
<path d="M46.3306 17.3848L45.3022 8.47192L43.2454 8.81473L41.7028 12.9284L39.1318 9.32893L37.075 9.50033L38.1034 18.4132L40.3316 18.0704L39.8174 13.9568L41.1886 15.8422H42.7312L43.5882 13.4426L44.1024 17.7276L46.3306 17.3848Z" fill="black"/>
<path d="M17.5351 33.4965L14.6213 29.0401L16.5067 25.6121L14.1071 25.7835L12.7359 29.0401L12.3931 26.1263L10.5077 26.2977L10.8505 29.2115L8.62228 26.4691L6.22266 26.8119L8.96508 29.7257L7.07966 34.6963L9.30788 34.3535L10.5077 31.0969L11.0219 31.7825L11.3647 34.1821L13.2501 34.0107L12.9073 31.4397L13.4215 30.7541L15.3069 33.6679L17.5351 33.4965Z" fill="black"/>
<path d="M21.6489 30.0685L20.2777 30.2399L20.7919 28.0117L21.6489 30.0685ZM24.7341 32.6396L20.9633 25.0979L19.4207 25.2693L17.5353 33.3252L19.5921 33.1538L19.7635 31.954L22.1631 31.6112L22.6773 32.811L24.7341 32.6396Z" fill="black"/>
<path d="M28.8478 26.6405C28.8478 27.1547 28.505 27.4975 28.1622 27.4975L27.1337 27.6689L26.9624 26.1263L27.9908 25.9549C28.3336 25.9549 28.8478 26.1263 28.8478 26.6405ZM30.7332 26.4691C30.5618 24.9265 29.362 24.0695 27.8194 24.2409L24.7341 24.5837L25.5911 32.4681L27.4766 32.2967L27.1337 29.5543L28.3336 29.3829C30.0476 29.0401 30.9046 27.8403 30.7332 26.4691Z" fill="black"/>
<path d="M38.6177 30.9257L37.7607 23.0413L36.0466 23.2127L33.9898 27.8405L33.647 23.5555L31.5902 23.7269L32.6186 31.6113L34.1612 31.4399L36.218 26.8121L36.7323 31.0971L38.6177 30.9257Z" fill="black"/>
<path d="M47.7019 29.8974L46.6735 22.0129L44.7881 22.1843L43.4169 25.7838L41.36 22.5271L39.3032 22.8699L40.3316 30.7544L42.217 30.4116L41.8742 26.6408L43.074 28.5262L44.4453 28.3548L45.3023 26.298L45.6451 30.0688L47.7019 29.8974Z" fill="black"/>
<path d="M13.4216 44.2951C13.4216 44.8093 13.2502 45.1521 12.736 45.1521L11.1934 45.4949L11.022 43.9523L12.5646 43.7809C13.0788 43.6095 13.4216 43.7809 13.4216 44.2951ZM12.9074 40.8671C12.9074 41.3813 12.736 41.7241 12.2218 41.7241L10.8506 41.8955L10.6792 40.3529L12.0504 40.1815C12.5646 40.0101 12.9074 40.3529 12.9074 40.8671ZM15.8212 44.2951C15.6498 43.4381 15.307 42.7525 14.45 42.4097C15.1356 41.7241 15.307 41.2099 15.307 40.3529C15.1356 38.8103 13.9358 37.9533 12.0504 38.1247L8.10815 38.4675L9.13656 47.7231L13.0788 47.2089C14.9642 47.0375 15.9926 45.8377 15.8212 44.2951Z" fill="black"/>
<path d="M23.8771 46.0089L23.7057 43.952L19.5921 44.4662L19.4207 42.7522L22.8487 42.4094L22.6773 40.3526L19.2493 40.8668L19.0779 39.3242L23.0201 38.81L22.8487 36.7532L16.5068 37.6102L17.7066 46.6945L23.8771 46.0089Z" fill="black"/>
<path d="M31.2475 42.4096C31.0761 41.5526 30.5619 40.867 29.7048 40.5242C30.219 40.01 30.7333 39.3244 30.5619 38.4674C30.3905 36.9248 28.8478 36.0678 27.1338 36.2392C25.934 36.4106 24.7342 36.7534 23.8772 37.7818L25.4198 38.9816C25.7626 38.4674 26.4482 38.296 27.1338 38.296C27.648 38.296 28.1622 38.4674 28.1622 38.9816C28.1622 39.4958 27.8194 39.8386 27.3052 40.01L26.1054 40.1814L26.2768 42.0668L27.4766 41.8954C28.1622 41.8954 28.6764 42.2382 28.6764 42.7524C28.6764 43.2666 28.1622 43.6094 27.648 43.7808C26.9624 43.7808 26.1054 43.7808 25.4198 43.438L24.22 44.9806C25.4198 45.8376 26.6196 46.009 27.9908 45.8376C30.0476 45.3234 31.4189 44.1236 31.2475 42.4096Z" fill="black"/>
<path d="M34.504 33.8396C34.504 33.3254 33.9898 32.8112 33.3042 32.9826C32.79 32.9826 32.2758 33.4968 32.4472 34.1824C32.4472 34.6966 32.9614 35.2108 33.647 35.0394C34.1612 35.0394 34.504 34.5252 34.504 33.8396ZM37.4178 33.4968C37.4178 32.9826 36.9036 32.4684 36.218 32.6398C35.7038 32.6398 35.1896 33.154 35.361 33.8396C35.361 34.3538 35.8752 34.868 36.5608 34.6966C37.075 34.6966 37.5892 34.1824 37.4178 33.4968ZM39.3032 44.1237L39.1318 42.0669L35.1896 42.5811L35.0182 41.0385L38.4462 40.6957L38.2748 38.6389L34.8468 38.9817L34.6754 37.4391L38.6176 36.9249L38.4462 34.868L32.2758 35.5536L33.3042 44.8093L39.3032 44.1237Z" fill="black"/>
<path d="M49.5874 42.9236L48.3876 33.668L46.1594 34.0108L44.6167 38.2958L42.0457 34.525L39.8175 34.6964L41.0173 43.9521L43.2455 43.6092L42.7313 39.3242L44.2739 41.381L45.6451 41.2096L46.845 38.81L47.3592 43.2664L49.5874 42.9236Z" fill="black"/>
</svg>
