<svg width="11" height="9" viewBox="0 0 11 9" fill="none" xmlns="http://www.w3.org/2000/svg">
<path d="M0.229526 1.04437C1.73923 2.32292 4.3883 4.5723 5.16689 5.27365C5.27142 5.36831 5.38352 5.41644 5.4999 5.41644C5.61605 5.41644 5.72796 5.36876 5.83224 5.27455C6.6115 4.57251 9.26057 2.32292 10.7703 1.04437C10.8643 0.964918 10.8786 0.825269 10.8025 0.728139C10.6266 0.503691 10.3643 0.375 10.0832 0.375H0.916575C0.635495 0.375 0.373192 0.503691 0.1973 0.72816C0.121202 0.82527 0.135532 0.964918 0.229526 1.04437Z" fill="#E73C32"/>
<path d="M10.867 1.73719C10.7858 1.69937 10.6902 1.71256 10.6226 1.77031C9.6339 2.60842 8.3312 3.71577 7.34874 4.56081C7.29705 4.60513 7.26796 4.67025 7.26907 4.73851C7.27019 4.80655 7.30175 4.87077 7.35501 4.91328C8.26788 5.64442 9.64355 6.65017 10.637 7.36497C10.6766 7.39361 10.7236 7.40816 10.7708 7.40816C10.8066 7.40816 10.8424 7.39989 10.8753 7.38287C10.9519 7.3437 11 7.26492 11 7.17898V1.94509C10.9999 1.8558 10.948 1.77457 10.867 1.73719Z" fill="#E73C32"/>
<path d="M0.363 7.36478C1.35665 6.64997 2.73255 5.64424 3.64519 4.91309C3.69845 4.87057 3.73001 4.80633 3.73113 4.73831C3.73224 4.67006 3.70315 4.60494 3.65146 4.56061C2.66898 3.71557 1.36604 2.60822 0.37733 1.77012C0.309289 1.71237 0.213512 1.69963 0.132945 1.73699C0.0519277 1.77437 0 1.8556 0 1.94489V7.17881C0 7.26474 0.048125 7.34353 0.124652 7.38269C0.157545 7.39971 0.193359 7.40798 0.229174 7.40798C0.276396 7.40798 0.323383 7.39344 0.363 7.36478Z" fill="#E73C32"/>
<path d="M10.7192 7.98849C9.75976 7.3021 7.99243 6.02245 6.93747 5.16619C6.85153 5.09615 6.72709 5.09838 6.64251 5.17134C6.4355 5.35194 6.26228 5.50414 6.13941 5.61468C5.76208 5.95529 5.2384 5.95529 4.86018 5.61422C4.73777 5.5039 4.56456 5.35125 4.35754 5.17132C4.27362 5.09791 4.14897 5.09568 4.06279 5.16617C3.01139 6.01951 1.24207 7.30073 0.281091 7.98846C0.227594 8.02696 0.193134 8.08626 0.18643 8.15183C0.179942 8.2174 0.201641 8.28252 0.24663 8.33086C0.420094 8.51775 0.664479 8.62496 0.916706 8.62496H10.0834C10.3356 8.62496 10.5798 8.51775 10.7536 8.33088C10.7984 8.28276 10.8203 8.21764 10.8138 8.15207C10.8071 8.08652 10.7727 8.02699 10.7192 7.98849Z" fill="#E73C32"/>
</svg>
