<svg width="16" height="16" viewBox="0 0 16 16" fill="none" xmlns="http://www.w3.org/2000/svg">
<path d="M7.99992 0C4.80476 0 2.20532 2.59944 2.20532 5.79456C2.20532 9.75981 7.39091 15.581 7.6117 15.8269C7.81907 16.0579 8.18113 16.0575 8.38813 15.8269C8.60891 15.581 13.7945 9.75981 13.7945 5.79456C13.7944 2.59944 11.195 0 7.99992 0ZM7.99992 14.679C6.2547 12.606 3.24882 8.516 3.24882 5.79463C3.24882 3.17481 5.38013 1.0435 7.99992 1.0435C10.6197 1.0435 12.751 3.17481 12.751 5.79459C12.751 8.5161 9.74557 12.6053 7.99992 14.679Z" fill="#5E6273"/>
<path d="M8.00009 2.87918C6.39253 2.87918 5.08472 4.18702 5.08472 5.79459C5.08472 7.40215 6.39256 8.70999 8.00009 8.70999C9.60762 8.70999 10.9154 7.40215 10.9154 5.79459C10.9154 4.18702 9.60762 2.87918 8.00009 2.87918ZM8.00009 7.66649C6.9679 7.66649 6.12822 6.82677 6.12822 5.79459C6.12822 4.7624 6.96794 3.92268 8.00009 3.92268C9.03225 3.92268 9.87197 4.7624 9.87197 5.79459C9.87197 6.82677 9.03225 7.66649 8.00009 7.66649Z" fill="#5E6273"/>
</svg>
