<svg width="8" height="6" viewBox="0 0 8 6" fill="none" xmlns="http://www.w3.org/2000/svg">
<path d="M3.99 3.53819L1.2899 0.838109C0.99584 0.544031 0.514636 0.544031 0.220558 0.838109C-0.0735197 1.13219 -0.0735197 1.64011 0.220558 1.90745L3.45532 5.16894C3.58898 5.30259 3.80287 5.38281 3.99 5.38281C4.20387 5.38281 4.39101 5.30261 4.52467 5.16894L7.78615 1.93419C7.91982 1.80052 8.00003 1.58666 8.00003 1.39952C8.00003 1.18564 7.91984 0.9985 7.78615 0.864844C7.49209 0.570765 7.01089 0.570765 6.71681 0.864844L3.99 3.53819ZM7.38514 1.21239C7.46532 1.29258 7.46532 1.45298 7.38514 1.53319L4.1504 4.79467C4.09693 4.84814 4.04346 4.87487 3.99 4.87487C3.93653 4.87487 3.88306 4.84814 3.82959 4.79467L0.59484 1.53319C0.541371 1.50645 0.514652 1.453 0.514652 1.37278C0.514652 1.29256 0.541386 1.26584 0.59484 1.21237C0.675027 1.13219 0.835433 1.13219 0.915636 1.21237L3.80286 4.12633C3.85632 4.1798 3.90979 4.20653 3.98998 4.20653C4.07017 4.20653 4.12365 4.1798 4.17712 4.12633L7.06434 1.23911C7.17128 1.13217 7.30495 1.13217 7.38514 1.21239Z" fill="#404353"/>
</svg>
