<svg width="27" height="27" viewBox="0 0 27 27" fill="none" xmlns="http://www.w3.org/2000/svg">
<path d="M20.0116 16.8379L16.502 13.3284L20.0116 9.81893C20.8738 8.9567 20.8554 7.52675 19.9928 6.66422C19.1303 5.80168 17.7003 5.78327 16.8381 6.64549L13.3286 10.155L9.81911 6.64549C8.95689 5.78327 7.52694 5.80168 6.6644 6.66422C5.80186 7.52675 5.78345 8.9567 6.64568 9.81893L10.1552 13.3284L6.64568 16.8379C5.78345 17.7002 5.80186 19.1301 6.6644 19.9926C7.52694 20.8552 8.95689 20.8736 9.81911 20.0114L13.3286 16.5019L16.8381 20.0114C17.7003 20.8736 19.1303 20.8552 19.9928 19.9926C20.8554 19.1301 20.8738 17.7002 20.0116 16.8379Z" fill="#28363D"/>
</svg>
