<svg width="125" height="106" viewBox="0 0 125 106" fill="none" xmlns="http://www.w3.org/2000/svg">
<path d="M21.3236 82.3721C20.8843 82.607 13.231 89.9719 10.494 93.0924C18.8907 92.891 22.7596 92.2368 22.8441 94.1828C22.8948 95.1056 22.0331 95.6592 21.0533 95.6592C20.4281 95.6592 19.5665 95.5921 18.9414 95.5921C15.7145 95.5921 11.1022 95.7598 7.87532 95.7598C6.86163 95.7598 6 95.2733 6 94.3171C6 93.1427 7.26711 91.8341 8.12874 90.8611C11.2036 87.2205 13.6364 84.1504 16.5761 81.7849C12.9775 82.003 8.09495 81.9359 8.01048 81.9359C7.53742 81.9359 7.13195 81.8185 6.79405 81.5668C6.42237 81.2984 6.23653 80.9293 6.23653 80.4763C6.23653 79.5033 7.06437 79 8.70317 79C9.26069 79 10.0885 79.0336 11.2036 79.0839C12.3186 79.151 22.9117 78.5806 22.9117 80.4931C22.9286 81.0803 22.3879 81.701 21.3236 82.3721Z" fill="white"/>
<path d="M11.7019 10.5836C11.364 10.7681 5.51844 16.3883 3.42349 18.7706C9.84351 18.6196 12.7832 18.1163 12.8677 19.6094C12.9015 20.314 12.2595 20.7335 11.4992 20.7335C11.0261 20.7335 10.3672 20.6831 9.89419 20.6831C7.42755 20.6831 3.91344 20.8006 1.42991 20.8006C0.652746 20.8006 0.0107422 20.4315 0.0107422 19.6933C0.0107422 18.7874 0.990639 17.7976 1.64954 17.0594C3.99791 14.2745 5.85634 11.9425 8.10335 10.1306C5.3495 10.2984 1.63264 10.2481 1.56506 10.2481C1.19338 10.2481 0.889271 10.1474 0.635849 9.96286C0.348637 9.76155 0.213479 9.47634 0.213479 9.12403C0.213479 8.36909 0.838587 8 2.0888 8C2.51117 8 3.15317 8.01678 3.99791 8.06711C4.84265 8.11744 12.9353 7.68124 12.9353 9.14081C12.9353 9.61056 12.5129 10.0803 11.7019 10.5836Z" fill="white"/>
<path d="M123.33 2.95269C122.941 3.17078 116.285 9.57945 113.903 12.2805C121.201 12.0959 124.563 11.5423 124.648 13.2368C124.682 14.042 123.938 14.5118 123.093 14.5118C122.553 14.5118 121.793 14.4447 121.252 14.4447C118.43 14.4447 114.426 14.5789 111.622 14.5789C110.743 14.5789 110 14.1595 110 13.3206C110 12.2973 111.115 11.1732 111.858 10.3176C114.545 7.14684 116.657 4.47936 119.208 2.41583C116.082 2.61715 111.842 2.55005 111.757 2.55005C111.335 2.55005 110.997 2.44939 110.71 2.23129C110.389 1.99642 110.22 1.67766 110.22 1.27502C110.22 0.419417 110.929 0 112.365 0C112.855 0 113.582 0.0335532 114.545 0.0838831C115.508 0.134213 124.732 -0.369085 124.732 1.30858C124.732 1.84543 124.259 2.38228 123.33 2.95269Z" fill="white"/>
<path d="M19 106V40.8848C19 18.345 37.6067 0 60.4683 0C83.3298 0 101.937 18.345 101.937 40.8848V106H19Z" fill="#F5CA2D"/>
<path d="M60.4684 6.26123C41.0996 6.26123 25.3506 21.7887 25.3506 40.885V99.7391H95.6497V40.885C95.6497 21.7887 79.9007 6.26123 60.4684 6.26123Z" fill="#101B21"/>
<g clip-path="url(#clip0)">
<path d="M69.4137 26.6824C69.5876 26.6389 69.7615 26.6824 69.9137 26.7911C70.4789 27.2693 71.131 27.6606 71.8484 27.9215C72.5223 28.1823 73.2614 28.3127 74.0439 28.3127C75.8047 28.3127 77.4134 27.5954 78.5655 26.4432C79.7176 25.2911 80.435 23.6825 80.435 21.9217C80.435 21.1826 80.3046 20.4652 80.0872 19.8131C79.8481 19.1174 79.5002 18.487 79.0437 17.9436C78.8481 17.7045 78.8916 17.3566 79.1307 17.161C79.2829 17.0523 79.4568 17.0088 79.6307 17.0523C81.4784 17.5523 83.0871 18.6609 84.2392 20.1391C85.3479 21.5956 86 23.3999 86 25.3563C86 27.7258 85.0435 29.8779 83.4784 31.4431C81.9132 33.0082 79.7828 33.9647 77.3916 33.9647C75.3917 33.9647 73.544 33.2691 72.0658 32.1169C70.5658 30.9431 69.4789 29.2692 69.0224 27.3563C68.9354 27.0519 69.1093 26.7476 69.4137 26.6824Z" fill="white"/>
</g>
<path d="M98.8249 52.5928H22.1118V60.7322H98.8249V52.5928Z" fill="#F5CA2D"/>
<path d="M56.3936 4.37231L56.3936 103.61H64.6491V4.37231H56.3936Z" fill="#F5CA2D"/>
<path d="M71.391 37.0656C71.882 37.0656 72.2801 36.6732 72.2801 36.1891C72.2801 35.7049 71.882 35.3125 71.391 35.3125C70.9 35.3125 70.502 35.7049 70.502 36.1891C70.502 36.6732 70.9 37.0656 71.391 37.0656Z" fill="#F7E9D9"/>
<path d="M86.6985 36.3774C87.0843 36.3774 87.3971 36.0691 87.3971 35.6887C87.3971 35.3083 87.0843 35 86.6985 35C86.3127 35 86 35.3083 86 35.6887C86 36.0691 86.3127 36.3774 86.6985 36.3774Z" fill="#F7E9D9"/>
<path d="M83.5715 45.127C83.8872 45.127 84.1431 44.8747 84.1431 44.5635C84.1431 44.2523 83.8872 44 83.5715 44C83.2559 44 83 44.2523 83 44.5635C83 44.8747 83.2559 45.127 83.5715 45.127Z" fill="#F7E9D9"/>
<path d="M42.6235 30.9298C42.6235 31.8063 41.9249 32.495 41.0358 32.495C40.1468 32.495 39.4482 31.8063 39.4482 30.9298C39.4482 30.0532 40.1468 29.3645 41.0358 29.3645C41.9249 29.3019 42.6235 30.0532 42.6235 30.9298Z" fill="#F7E9D9"/>
<path d="M45.7355 41.2606C45.7355 41.6989 45.418 42.0119 44.9735 42.0119C44.5289 42.0119 44.2114 41.6989 44.2114 41.2606C44.2114 40.8223 44.5289 40.5093 44.9735 40.5093C45.3545 40.5093 45.7355 40.8223 45.7355 41.2606Z" fill="#F7E9D9"/>
<path d="M75.8999 89.2203C76.5312 89.2203 77.043 88.7157 77.043 88.0933C77.043 87.4709 76.5312 86.9663 75.8999 86.9663C75.2686 86.9663 74.7568 87.4709 74.7568 88.0933C74.7568 88.7157 75.2686 89.2203 75.8999 89.2203Z" fill="#F7E9D9"/>
<path d="M30.304 90.4725C31.286 90.4725 32.0821 89.6876 32.0821 88.7194C32.0821 87.7512 31.286 86.9663 30.304 86.9663C29.322 86.9663 28.5259 87.7512 28.5259 88.7194C28.5259 89.6876 29.322 90.4725 30.304 90.4725Z" fill="#F7E9D9"/>
<defs>
<clipPath id="clip0">
<rect width="17" height="17" fill="white" transform="matrix(-1 0 0 1 86 17)"/>
</clipPath>
</defs>
</svg>
