<svg width="12" height="18" viewBox="0 0 12 18" fill="none" xmlns="http://www.w3.org/2000/svg">
<path d="M9.77846 0H2.22146C1.49306 0 0.899963 0.5931 0.899963 1.3215V16.6782C0.899963 17.4069 1.49306 18 2.22146 18H9.77816C10.5069 18 11.1 17.4069 11.1 16.6785V1.3215C11.1 0.5931 10.5069 0 9.77846 0ZM1.49996 2.4H10.5V13.8H1.49996V2.4ZM2.22146 0.6H9.77816C10.1763 0.6 10.5 0.9237 10.5 1.3215V1.8H1.49996V1.3215C1.49996 0.9237 1.82366 0.6 2.22146 0.6ZM9.77846 17.4H2.22146C1.82366 17.4 1.49996 17.0763 1.49996 16.6785V14.4H10.5V16.6785C10.5 17.0763 10.1763 17.4 9.77846 17.4Z" fill="#9B9DA6"/>
<path d="M5.99993 14.7002C5.33813 14.7002 4.79993 15.2384 4.79993 15.9002C4.79993 16.562 5.33813 17.1002 5.99993 17.1002C6.66173 17.1002 7.19993 16.562 7.19993 15.9002C7.19993 15.2384 6.66173 14.7002 5.99993 14.7002ZM5.99993 16.5002C5.66903 16.5002 5.39993 16.2311 5.39993 15.9002C5.39993 15.5693 5.66903 15.3002 5.99993 15.3002C6.33083 15.3002 6.59993 15.5693 6.59993 15.9002C6.59993 16.2311 6.33083 16.5002 5.99993 16.5002Z" fill="#9B9DA6"/>
<path d="M4.8 1.50039H6C6.1659 1.50039 6.3 1.36629 6.3 1.20039C6.3 1.03449 6.1659 0.900391 6 0.900391H4.8C4.6341 0.900391 4.5 1.03449 4.5 1.20039C4.5 1.36629 4.6341 1.50039 4.8 1.50039Z" fill="#9B9DA6"/>
<path d="M6.89991 1.50039H7.19991C7.36581 1.50039 7.49991 1.36629 7.49991 1.20039C7.49991 1.03449 7.36581 0.900391 7.19991 0.900391H6.89991C6.73401 0.900391 6.59991 1.03449 6.59991 1.20039C6.59991 1.36629 6.73401 1.50039 6.89991 1.50039Z" fill="#9B9DA6"/>
</svg>
