<svg width="30" height="30" viewBox="0 0 30 30" fill="none" xmlns="http://www.w3.org/2000/svg">
<path fill-rule="evenodd" clip-rule="evenodd" d="M26.5125 9.87476V20.0623C26.5125 23.8373 24.15 26.4998 20.375 26.4998H9.5625C5.7875 26.4998 3.4375 23.8373 3.4375 20.0623V9.87476C3.4375 6.09976 5.8 3.43851 9.5625 3.43851H20.375C24.15 3.43851 26.5125 6.09976 26.5125 9.87476Z" stroke="white" stroke-width="1.5" stroke-linecap="round" stroke-linejoin="round"/>
<path d="M6.60156 20.5401L8.51281 18.5239C9.20156 17.7964 10.3578 17.7926 11.0528 18.5139L12.1591 19.6426C12.9053 20.4039 14.1466 20.3489 14.8228 19.5251L17.6091 16.1364C18.4091 15.1626 19.8766 15.1026 20.7528 16.0064L23.3478 18.6839" stroke="white" stroke-width="1.5" stroke-linecap="round" stroke-linejoin="round"/>
<path fill-rule="evenodd" clip-rule="evenodd" d="M12.8916 11.4178C12.8916 12.6278 11.9091 13.6103 10.6991 13.6103C9.48906 13.6103 8.50781 12.6278 8.50781 11.4178C8.50781 10.2078 9.48906 9.22525 10.6991 9.22525C11.9091 9.22525 12.8916 10.2078 12.8916 11.4178Z" stroke="white" stroke-width="1.5" stroke-linecap="round" stroke-linejoin="round"/>
</svg>
