<svg width="12" height="12" viewBox="0 0 12 12" fill="none" xmlns="http://www.w3.org/2000/svg">
<path d="M10.5883 4.57143H7.42857V1.41171C7.42857 0.635429 6.77657 0 6 0C5.22343 0 4.57143 0.635429 4.57143 1.41171V4.57143H1.41171C0.635429 4.57143 0 5.22343 0 6C0 6.77657 0.635429 7.42857 1.41171 7.42857H4.57143V10.5883C4.57143 11.3646 5.22343 12 6 12C6.77657 12 7.42857 11.3646 7.42857 10.5883V7.42857H10.5883C11.3646 7.42857 12 6.77657 12 6C12 5.22343 11.3646 4.57143 10.5883 4.57143Z" fill="#2B2D37"/>
</svg>
