<svg width="18" height="20" viewBox="0 0 18 20" fill="none" xmlns="http://www.w3.org/2000/svg">
<path d="M16.5628 6.94523L14.6023 6.23167C15.3111 5.64597 15.6138 4.71695 15.3968 3.83413C14.9703 2.09964 12.8555 1.4412 11.5194 2.62234L10.1658 3.8189L9.89807 2.02437C9.6333 0.25761 7.58787 -0.59239 6.14892 0.460344C5.42943 0.986711 5.0467 1.89409 5.21642 2.81542L3.36807 2.14269C2.45869 1.81163 1.44935 2.28226 1.1183 3.19175L0.317909 5.39085C0.207401 5.69448 0.363964 6.03027 0.667636 6.14073C0.7908 6.18554 9.68099 9.42132 9.81154 9.46882C9.44154 9.46882 1.33877 9.46882 0.982284 9.46882C0.659159 9.46882 0.397206 9.73077 0.397206 10.0539V18.2448C0.397206 19.2126 1.18459 20 2.1524 20H6.83295H9.17322H13.8538C14.8216 20 15.609 19.2126 15.609 18.2448V11.5789L16.0616 11.7437C16.3638 11.8538 16.7004 11.6989 16.8115 11.394L17.6119 9.19491C17.9428 8.28542 17.4722 7.27624 16.5628 6.94523ZM6.24783 18.8299H2.15236C1.82974 18.8299 1.56728 18.5675 1.56728 18.2448V10.639H6.24783V18.8299ZM8.5881 18.8299H7.41799V10.639H8.5881V18.8299ZM12.2944 3.49905C12.9731 2.89902 14.0446 3.23562 14.2604 4.11355C14.4906 5.0496 13.5859 5.86124 12.6803 5.53218C11.9101 5.25183 11.5492 5.12046 10.7779 4.83972L12.2944 3.49905ZM6.83978 1.4048C7.57103 0.869875 8.60685 1.30394 8.74088 2.19788L9.04088 4.20745C8.82494 4.12886 7.35096 3.59234 7.13857 3.51507C6.23295 3.18527 6.06189 1.97378 6.83978 1.4048ZM7.11541 7.2423L1.6176 5.24124L2.21791 3.59195C2.32826 3.28878 2.66471 3.13198 2.96783 3.24226C3.58307 3.46616 7.72607 4.97409 7.9158 5.04316L7.11541 7.2423ZM9.31455 8.04277L8.21498 7.64253L9.01541 5.44343L10.115 5.84366L9.31455 8.04277ZM14.4388 18.2448C14.4388 18.5675 14.1763 18.8299 13.8537 18.8299H9.75826V10.639H13.0265L14.4388 11.153V18.2448H14.4388ZM16.5122 8.79464L15.9119 10.444L10.4141 8.44292L11.2145 6.24382L16.1626 8.04472C16.4657 8.15507 16.6226 8.49152 16.5122 8.79464Z" fill="#4EAF30"/>
</svg>
