<svg width="125" height="125" viewBox="0 0 125 125" fill="none" xmlns="http://www.w3.org/2000/svg">
<circle cx="2.42718" cy="2.42718" r="2.42718" fill="#E07E27"/>
<circle cx="22.4516" cy="2.42718" r="2.42718" fill="#E07E27"/>
<circle cx="42.4755" cy="2.42718" r="2.42718" fill="#E07E27"/>
<circle cx="62.4999" cy="2.42718" r="2.42718" fill="#E07E27"/>
<circle cx="82.5244" cy="2.42718" r="2.42718" fill="#E07E27"/>
<circle cx="102.549" cy="2.42718" r="2.42718" fill="#E07E27"/>
<circle cx="122.573" cy="2.42718" r="2.42718" fill="#E07E27"/>
<circle cx="2.42718" cy="22.4515" r="2.42718" fill="#E07E27"/>
<circle cx="22.4516" cy="22.4515" r="2.42718" fill="#E07E27"/>
<circle cx="42.4755" cy="22.4515" r="2.42718" fill="#E07E27"/>
<circle cx="62.4999" cy="22.4515" r="2.42718" fill="#E07E27"/>
<circle cx="82.5244" cy="22.4515" r="2.42718" fill="#E07E27"/>
<circle cx="102.549" cy="22.4515" r="2.42718" fill="#E07E27"/>
<circle cx="122.573" cy="22.4515" r="2.42718" fill="#E07E27"/>
<circle cx="2.42718" cy="42.4758" r="2.42718" fill="#E07E27"/>
<circle cx="22.4516" cy="42.4758" r="2.42718" fill="#E07E27"/>
<circle cx="42.4755" cy="42.4758" r="2.42718" fill="#E07E27"/>
<circle cx="62.4999" cy="42.4758" r="2.42718" fill="#E07E27"/>
<circle cx="82.5244" cy="42.4758" r="2.42718" fill="#E07E27"/>
<circle cx="102.549" cy="42.4758" r="2.42718" fill="#E07E27"/>
<circle cx="122.573" cy="42.4758" r="2.42718" fill="#E07E27"/>
<circle cx="2.42718" cy="62.4999" r="2.42718" fill="#E07E27"/>
<circle cx="22.4516" cy="62.4999" r="2.42718" fill="#E07E27"/>
<circle cx="42.4755" cy="62.4999" r="2.42718" fill="#E07E27"/>
<circle cx="62.4999" cy="62.4999" r="2.42718" fill="#E07E27"/>
<circle cx="82.5244" cy="62.4999" r="2.42718" fill="#E07E27"/>
<circle cx="102.549" cy="62.4999" r="2.42718" fill="#E07E27"/>
<circle cx="122.573" cy="62.4999" r="2.42718" fill="#E07E27"/>
<circle cx="2.42718" cy="82.5242" r="2.42718" fill="#E07E27"/>
<circle cx="22.4516" cy="82.5242" r="2.42718" fill="#E07E27"/>
<circle cx="42.4755" cy="82.5242" r="2.42718" fill="#E07E27"/>
<circle cx="62.4999" cy="82.5242" r="2.42718" fill="#E07E27"/>
<circle cx="82.5244" cy="82.5242" r="2.42718" fill="#E07E27"/>
<circle cx="102.549" cy="82.5242" r="2.42718" fill="#E07E27"/>
<circle cx="122.573" cy="82.5242" r="2.42718" fill="#E07E27"/>
<circle cx="2.42718" cy="102.549" r="2.42718" fill="#E07E27"/>
<circle cx="22.4516" cy="102.549" r="2.42718" fill="#E07E27"/>
<circle cx="42.4755" cy="102.549" r="2.42718" fill="#E07E27"/>
<circle cx="62.4999" cy="102.549" r="2.42718" fill="#E07E27"/>
<circle cx="82.5244" cy="102.549" r="2.42718" fill="#E07E27"/>
<circle cx="102.549" cy="102.549" r="2.42718" fill="#E07E27"/>
<circle cx="122.573" cy="102.549" r="2.42718" fill="#E07E27"/>
<circle cx="2.42718" cy="122.573" r="2.42718" fill="#E07E27"/>
<circle cx="22.4516" cy="122.573" r="2.42718" fill="#E07E27"/>
<circle cx="42.4755" cy="122.573" r="2.42718" fill="#E07E27"/>
<circle cx="62.4999" cy="122.573" r="2.42718" fill="#E07E27"/>
<circle cx="82.5244" cy="122.573" r="2.42718" fill="#E07E27"/>
<circle cx="102.549" cy="122.573" r="2.42718" fill="#E07E27"/>
<circle cx="122.573" cy="122.573" r="2.42718" fill="#E07E27"/>
</svg>
