<svg width="17" height="15" viewBox="0 0 17 15" fill="none" xmlns="http://www.w3.org/2000/svg">
<path d="M0.955587 8.83167L0.92905 8.82586L12.3047 8.82586L8.7286 12.4098C8.55348 12.5848 8.45743 12.8218 8.45743 13.0706C8.45743 13.3194 8.55348 13.5548 8.7286 13.7302L9.28504 14.2869C9.46001 14.4618 9.69317 14.5586 9.94182 14.5586C10.1906 14.5586 10.4239 14.4625 10.5989 14.2876L16.729 8.15802C16.9046 7.98236 17.0007 7.74836 17 7.49945C17.0007 7.24915 16.9046 7.01502 16.729 6.83962L10.5989 0.709536C10.4239 0.534699 10.1907 0.438504 9.94182 0.438504C9.69317 0.438504 9.46001 0.534837 9.28503 0.709536L8.7286 1.26625C8.55348 1.44095 8.45742 1.67425 8.45742 1.92303C8.45742 2.17167 8.55348 2.39268 8.7286 2.56751L12.345 6.17151L0.94287 6.17151C0.430522 6.17151 -6.41666e-06 6.6131 -6.3719e-06 7.12517L-6.30306e-06 7.91256C-6.25829e-06 8.42463 0.443237 8.83167 0.955587 8.83167Z" fill="white"/>
</svg>
