<svg width="7" height="10" viewBox="0 0 7 10" fill="none" xmlns="http://www.w3.org/2000/svg">
<path fill-rule="evenodd" clip-rule="evenodd" d="M5.56223 1.38712H4.07629V0H3.1526V1.38712H2.40963V0H1.48594V1.38712H0V2.21939L0.783129 2.37792V7.45082L0 7.58954V8.44162H1.50602V9.82874H2.42971V8.44162H3.17268V9.82874L4.09637 9.86838V8.40199C4.70547 8.34915 5.99194 7.92641 6.26504 6.65818C6.37882 6.16939 6.34937 5.04119 5.32126 4.43879C5.0803 4.28687 4.42568 3.98698 3.73492 4.00284H2.28915V2.477H4.37749L4.45781 3.17056H5.56223V1.38712ZM2.24878 4.95392V7.23276H3.73472C4.06939 7.22615 4.75078 7.01478 4.79897 6.22214C4.85921 5.83903 4.7307 5.04904 3.73472 4.95392H2.24878Z" fill="#2B2D37"/>
</svg>
