<svg width="56" height="53" viewBox="0 0 56 53" fill="none" xmlns="http://www.w3.org/2000/svg">
<path d="M25.2027 2.21728C26.1928 -0.337183 29.8072 -0.337183 30.7973 2.21728L35.8943 15.3684C36.32 16.4667 37.3489 17.2142 38.5249 17.2797L52.6075 18.0633C55.3429 18.2156 56.4598 21.6531 54.3363 23.384L43.4039 32.2956C42.4909 33.0398 42.0979 34.2493 42.3991 35.388L46.0055 49.0235C46.706 51.672 43.7819 53.7965 41.4795 52.3119L29.6258 44.6683C28.6359 44.03 27.3641 44.03 26.3742 44.6683L14.5205 52.3119C12.2181 53.7965 9.29398 51.672 9.99449 49.0235L13.6009 35.388C13.9021 34.2493 13.5091 33.0398 12.5961 32.2956L1.66372 23.384C-0.459775 21.6531 0.657135 18.2156 3.39252 18.0633L17.4751 17.2797C18.6511 17.2142 19.68 16.4667 20.1057 15.3684L25.2027 2.21728Z" fill="#E41D2D"/>
</svg>
