<svg width="26" height="24" viewBox="0 0 26 24" fill="none" xmlns="http://www.w3.org/2000/svg">
<path d="M10.2764 2.21729C11.2665 -0.337181 14.8809 -0.337183 15.8709 2.21728L16.9427 4.98253C17.3683 6.08075 18.3972 6.8283 19.5732 6.89375L22.5343 7.05853C25.2697 7.21075 26.3866 10.6482 24.2631 12.3792L21.9644 14.253C21.0515 14.9972 20.6585 16.2068 20.9596 17.3454L21.7179 20.2125C22.4184 22.8611 19.4943 24.9856 17.1919 23.5009L14.6995 21.8937C13.7096 21.2554 12.4378 21.2554 11.4479 21.8937L8.95548 23.5009C6.65303 24.9855 3.72892 22.8611 4.42943 20.2125L5.18774 17.3454C5.4889 16.2068 5.0959 14.9972 4.18295 14.253L1.88424 12.3792C-0.239263 10.6482 0.877645 7.21075 3.61303 7.05853L6.57412 6.89375C7.75013 6.8283 8.77904 6.08076 9.20469 4.98253L10.2764 2.21729Z" fill="#E7EEF1"/>
</svg>
