<svg width="26" height="26" viewBox="0 0 26 26" fill="none" xmlns="http://www.w3.org/2000/svg">
<circle cx="13" cy="13" r="13" fill="#207E27"/>
<path d="M17.9952 15.8914C18.0164 16.0538 17.9669 16.1949 17.847 16.3149L16.439 17.7122C16.3755 17.7828 16.2926 17.8428 16.1903 17.8922C16.0879 17.9416 15.9874 17.9734 15.8886 17.9875C15.8816 17.9875 15.8603 17.9893 15.825 17.9928C15.7898 17.9963 15.7439 17.9981 15.6875 17.9981C15.5533 17.9981 15.3363 17.9752 15.0364 17.9293C14.7364 17.8834 14.3694 17.7705 13.9354 17.5905C13.5013 17.4106 13.0091 17.1406 12.4586 16.7807C11.9081 16.4208 11.3223 15.9267 10.7013 15.2986C10.2073 14.8116 9.79792 14.3458 9.47328 13.9012C9.14863 13.4566 8.8875 13.0455 8.68989 12.6679C8.49226 12.2903 8.34405 11.948 8.24525 11.641C8.14644 11.334 8.0794 11.0694 8.04411 10.8471C8.00882 10.6247 7.99471 10.4501 8.00176 10.323C8.00882 10.196 8.01235 10.1254 8.01235 10.1113C8.02647 10.0125 8.05822 9.91194 8.10763 9.8096C8.15703 9.70727 8.21702 9.62434 8.28759 9.56082L9.69557 8.15285C9.79438 8.05404 9.9073 8.00464 10.0343 8.00464C10.1261 8.00464 10.2072 8.0311 10.2778 8.08404C10.3484 8.13697 10.4084 8.20225 10.4578 8.27988L11.5905 10.4289C11.654 10.5418 11.6717 10.6653 11.6434 10.7994C11.6152 10.9335 11.5552 11.0464 11.4635 11.1382L10.9448 11.6569C10.9306 11.671 10.9183 11.694 10.9077 11.7257C10.8971 11.7575 10.8918 11.7839 10.8918 11.8051C10.9201 11.9533 10.9836 12.1227 11.0824 12.3133C11.1671 12.4826 11.2976 12.6891 11.4741 12.9326C11.6505 13.176 11.901 13.4566 12.2257 13.7742C12.5433 14.0988 12.8256 14.3511 13.0726 14.5311C13.3196 14.711 13.5261 14.8434 13.6919 14.9281C13.8578 15.0128 13.9848 15.0639 14.073 15.0815L14.2053 15.108C14.2194 15.108 14.2424 15.1027 14.2741 15.0921C14.3059 15.0815 14.3288 15.0692 14.343 15.0551L14.9464 14.4411C15.0735 14.3282 15.2216 14.2717 15.391 14.2717C15.511 14.2717 15.6062 14.2928 15.6768 14.3352H15.6874L17.7305 15.542C17.8788 15.6339 17.967 15.7503 17.9952 15.8914Z" fill="white"/>
</svg>
