<svg width="12" height="18" viewBox="0 0 12 18" fill="none" xmlns="http://www.w3.org/2000/svg">
<path d="M9.77889 0H2.22189C1.49349 0 0.900391 0.5931 0.900391 1.3215V16.6782C0.900391 17.4069 1.49349 18 2.22189 18H9.77859C10.5073 18 11.1004 17.4069 11.1004 16.6785V1.3215C11.1004 0.5931 10.5073 0 9.77889 0ZM1.50039 2.4H10.5004V13.8H1.50039V2.4ZM2.22189 0.6H9.77859C10.1767 0.6 10.5004 0.9237 10.5004 1.3215V1.8H1.50039V1.3215C1.50039 0.9237 1.82409 0.6 2.22189 0.6ZM9.77889 17.4H2.22189C1.82409 17.4 1.50039 17.0763 1.50039 16.6785V14.4H10.5004V16.6785C10.5004 17.0763 10.1767 17.4 9.77889 17.4Z" fill="#4EAF30"/>
<path d="M6.00078 14.7002C5.33898 14.7002 4.80078 15.2384 4.80078 15.9002C4.80078 16.562 5.33898 17.1002 6.00078 17.1002C6.66258 17.1002 7.20078 16.562 7.20078 15.9002C7.20078 15.2384 6.66258 14.7002 6.00078 14.7002ZM6.00078 16.5002C5.66988 16.5002 5.40078 16.2311 5.40078 15.9002C5.40078 15.5693 5.66988 15.3002 6.00078 15.3002C6.33168 15.3002 6.60078 15.5693 6.60078 15.9002C6.60078 16.2311 6.33168 16.5002 6.00078 16.5002Z" fill="#4EAF30"/>
<path d="M4.8 1.50039H6C6.1659 1.50039 6.3 1.36629 6.3 1.20039C6.3 1.03449 6.1659 0.900391 6 0.900391H4.8C4.6341 0.900391 4.5 1.03449 4.5 1.20039C4.5 1.36629 4.6341 1.50039 4.8 1.50039Z" fill="#4EAF30"/>
<path d="M6.90059 1.50039H7.20059C7.36649 1.50039 7.50059 1.36629 7.50059 1.20039C7.50059 1.03449 7.36649 0.900391 7.20059 0.900391H6.90059C6.73469 0.900391 6.60059 1.03449 6.60059 1.20039C6.60059 1.36629 6.73469 1.50039 6.90059 1.50039Z" fill="#4EAF30"/>
</svg>
