<svg width="27" height="23" viewBox="0 0 27 23" fill="none" xmlns="http://www.w3.org/2000/svg">
<path d="M26.583 0.682037C26.2533 0.278702 25.7593 0.0566406 25.192 0.0566406C24.8836 0.0566406 24.5569 0.121529 24.2211 0.249863L1.36613 8.97431C0.153241 9.43718 -0.0101123 10.1318 0.000393328 10.5046C0.010899 10.8775 0.213391 11.5618 1.45059 11.9555C1.458 11.9577 1.46542 11.96 1.47284 11.962L6.21357 13.3187L8.77737 20.65C9.12694 21.6495 9.91157 22.2704 10.8254 22.2704C11.4015 22.2704 11.9682 22.029 12.4642 21.5725L15.3966 18.8725L19.6497 22.2972C19.6501 22.2976 19.6507 22.2978 19.6512 22.2982L19.6915 22.3307C19.6952 22.3336 19.6992 22.3367 19.7029 22.3396C20.1756 22.7063 20.6916 22.8999 21.1957 22.9001H21.1959C22.1808 22.9001 22.965 22.1711 23.1934 21.0431L26.9382 2.55225C27.0886 1.81006 26.9625 1.14594 26.583 0.682037ZM7.79952 13.061L16.9458 8.38847L11.2507 14.4399C11.1574 14.539 11.0913 14.6604 11.0587 14.7924L9.9606 19.2406L7.79952 13.061ZM11.3925 20.4086C11.3546 20.4434 11.3164 20.4745 11.2783 20.5032L12.2972 16.3767L14.1505 17.8691L11.3925 20.4086ZM25.3877 2.23811L21.6429 20.7291C21.6069 20.9061 21.4917 21.3179 21.1957 21.3179C21.0494 21.3179 20.8657 21.2381 20.6776 21.0933L15.8582 17.2128C15.8576 17.2122 15.8568 17.2116 15.8559 17.2112L12.9883 14.902L21.2241 6.15076C21.4878 5.87061 21.5117 5.44152 21.2808 5.13377C21.0496 4.82601 20.6309 4.72919 20.2883 4.90429L6.74256 11.8244L1.93735 10.4496L24.7853 1.72787C24.9784 1.65412 25.1131 1.63867 25.192 1.63867C25.2404 1.63867 25.3265 1.64444 25.3584 1.68378C25.4004 1.73508 25.454 1.90997 25.3877 2.23811Z" fill="#1B1C1F"/>
</svg>
