<svg width="26" height="26" viewBox="0 0 26 26" fill="none" xmlns="http://www.w3.org/2000/svg">
<circle cx="13" cy="13" r="13" fill="#207E27"/>
<path d="M13 7C9.6916 7 7 9.6916 7 13C7 16.3084 9.6916 19 13 19C16.3084 19 19 16.3084 19 13C19 9.6916 16.3084 7 13 7ZM13 17.7233C10.3956 17.7233 8.27657 15.6045 8.27657 13C8.27657 10.3955 10.3956 8.2767 13 8.2767C15.6044 8.2767 17.7234 10.3955 17.7234 13C17.7234 15.6045 15.6044 17.7233 13 17.7233Z" fill="white"/>
<path d="M16.1269 12.8147H13.4304V9.57264C13.4304 9.29982 13.2092 9.07861 12.9364 9.07861C12.6636 9.07861 12.4424 9.29982 12.4424 9.57264V13.3087C12.4424 13.5816 12.6636 13.8028 12.9364 13.8028H16.1269C16.3997 13.8028 16.6209 13.5816 16.6209 13.3087C16.6209 13.0359 16.3997 12.8147 16.1269 12.8147Z" fill="white"/>
</svg>
