<svg width="13" height="13" viewBox="0 0 13 13" fill="none" xmlns="http://www.w3.org/2000/svg">
<path d="M6.49774 0C8.29125 0 9.91511 0.729304 11.0939 1.90337C12.268 3.08247 12.9973 4.70633 12.9973 6.49984C12.9973 8.29336 12.268 9.91722 11.0939 11.0963C9.9148 12.2704 8.29125 12.9997 6.49774 12.9997C4.70422 12.9997 3.08068 12.2704 1.90661 11.0963C0.727513 9.91722 0.00292969 8.29367 0.00292969 6.49984C0.00292969 4.70633 0.727198 3.08247 1.9063 1.90337C3.08068 0.729304 4.70422 0 6.49774 0ZM9.8103 6.14511C10.0051 6.14511 10.16 6.305 10.16 6.49984C10.16 6.69468 10.0051 6.85458 9.8103 6.85458H6.50781H6.49774C6.36774 6.85458 6.25285 6.77967 6.19305 6.67485L6.18801 6.66981L6.18297 6.65974V6.65471L6.17794 6.64463L6.1729 6.63456V6.62952L6.16787 6.61945L6.16283 6.61442V6.60434L6.15779 6.59427V6.58924L6.15276 6.57916V6.56909V6.56405V6.55902L6.14772 6.55398V6.54391V6.53384V6.52502V6.51999V6.50991V6.49984V2.26818C6.14772 2.07334 6.30258 1.91848 6.49742 1.91848C6.69226 1.91848 6.85216 2.07334 6.85216 2.26818V6.14511H9.8103ZM10.5944 2.40321C9.54527 1.35411 8.09641 0.709474 6.49774 0.709474C4.89906 0.709474 3.45021 1.35379 2.4011 2.40321C1.35704 3.45231 0.707368 4.90116 0.707368 6.49984C0.707368 8.09852 1.35672 9.54737 2.4011 10.5968C3.45021 11.6459 4.89906 12.2905 6.49774 12.2905C8.09641 12.2905 9.54527 11.6459 10.5944 10.5968C11.6435 9.54769 12.2931 8.09883 12.2931 6.49984C12.2931 4.90116 11.6438 3.45231 10.5944 2.40321Z" fill="#4EAF30"/>
</svg>
