<svg width="26" height="26" viewBox="0 0 26 26" fill="none" xmlns="http://www.w3.org/2000/svg">
<path d="M24.9074 9.17653C24.9076 6.73466 23.9505 4.43285 22.2126 2.69498C20.4748 0.957108 18.1729 0 15.7309 0H10.2937C10.2935 0 10.2935 0 10.2935 0C7.85185 0 5.54984 0.957108 3.81216 2.69478C2.0743 4.43285 1.11719 6.73466 1.11719 9.17653V13.4505C1.11719 15.3417 1.69403 17.1607 2.78543 18.7113C3.74829 20.0792 5.04321 21.1478 6.55296 21.8252V24.2802C6.55296 25.5495 7.2637 26 7.87228 26C8.3071 26 8.74191 25.7854 9.16522 25.3623L11.9003 22.6272L15.7311 22.627C18.1729 22.627 20.4748 21.6699 22.2126 19.9322C23.9505 18.1944 24.9076 15.8923 24.9076 13.4505L24.9074 9.17653ZM15.7311 21.1036L11.5849 21.1038C11.3827 21.1038 11.1891 21.1839 11.0463 21.3267L8.0881 24.2849C8.08434 24.2889 8.08037 24.2927 8.0764 24.2964C8.0764 24.2911 8.0764 24.2855 8.0764 24.2802V21.3168C8.0764 21.0008 7.88141 20.7178 7.58624 20.6051C4.62823 19.4764 2.64082 16.6011 2.64082 13.4505V9.17653C2.64082 7.14151 3.43944 5.22214 4.88948 3.7719C6.33952 2.32205 8.2587 1.52344 10.2937 1.52344H15.7309C17.7659 1.52344 19.6853 2.32205 21.1353 3.77209C22.5856 5.22234 23.3842 7.14171 23.384 9.17653L23.3842 13.4505C23.384 17.6705 19.9509 21.1036 15.7311 21.1036Z" fill="#1B1C1F"/>
<path d="M15.038 12.4584C14.7406 12.1608 14.2584 12.1608 13.9609 12.4584L13.3456 13.0735L10.9612 10.6894L11.5765 10.0742C11.7194 9.93143 11.7997 9.73763 11.7997 9.53549C11.7997 9.33356 11.7194 9.13976 11.5765 8.99693L8.69193 6.11232C8.5491 5.9695 8.3555 5.88916 8.15337 5.88916C7.95143 5.88916 7.75763 5.9695 7.61481 6.11232L5.59546 8.13167C4.50347 9.22366 4.50347 11.0008 5.59566 12.0934L11.9415 18.4397C12.4692 18.9671 13.1728 19.2575 13.9224 19.2575C14.6722 19.2575 15.3758 18.9671 15.9035 18.4397L17.9228 16.4205C18.0656 16.2775 18.146 16.0839 18.146 15.8818C18.146 15.6798 18.0656 15.486 17.9228 15.3432L15.038 12.4584ZM14.8261 17.3622C14.5863 17.602 14.2654 17.7341 13.9224 17.7341C13.5794 17.7341 13.2585 17.602 13.0186 17.3622L6.67298 11.0161C6.17468 10.5178 6.17449 9.70688 6.67278 9.20879L8.15337 7.728L9.96066 9.53549L9.34534 10.1506C9.20252 10.2934 9.12218 10.4872 9.12218 10.6892C9.12218 10.8913 9.20252 11.0849 9.34534 11.2279L12.8068 14.6894C13.1043 14.9867 13.5866 14.9869 13.8841 14.6894L14.4994 14.0743L16.3067 15.8816L14.8261 17.3622Z" fill="#1B1C1F"/>
<path d="M13.1972 3.36963C12.7765 3.36963 12.4355 3.71062 12.4355 4.13135C12.4355 4.55188 12.7765 4.89307 13.1972 4.89307C14.9404 4.89307 16.5795 5.57187 17.8121 6.8047C19.045 8.03734 19.7238 9.67622 19.7238 11.4196C19.7238 11.8402 20.0648 12.1814 20.4855 12.1814C20.906 12.1814 21.2472 11.8404 21.2472 11.4196C21.2472 9.26938 20.4099 7.24785 18.8895 5.72739C17.369 4.20692 15.3475 3.36963 13.1972 3.36963Z" fill="#1B1C1F"/>
<path d="M16.4603 11.4194C16.4603 11.8399 16.8015 12.1811 17.222 12.1811C17.6427 12.1811 17.9837 11.8399 17.9837 11.4194C17.9837 8.78015 15.8364 6.63306 13.1972 6.63306C12.7765 6.63306 12.4355 6.97404 12.4355 7.39478C12.4355 7.81551 12.7765 8.15649 13.1972 8.15649C14.9966 8.15649 16.4603 9.62022 16.4603 11.4194Z" fill="#1B1C1F"/>
</svg>
