<svg width="28" height="28" viewBox="0 0 28 28" fill="none" xmlns="http://www.w3.org/2000/svg">
<circle cx="13.7185" cy="14" r="13.2185" stroke="#9B9DA6"/>
<path d="M20.4448 17.5087C20.4448 17.4517 20.3878 17.4517 20.3878 17.3948C20.16 16.9392 19.6475 16.3697 18.9641 15.7433C18.6225 15.4586 18.4516 15.2308 18.3377 15.1169C18.1669 14.8891 18.1669 14.7183 18.2238 14.4905C18.2808 14.3196 18.5086 14.0349 18.9072 13.5224C19.135 13.2376 19.2489 13.0668 19.4197 12.896C20.2739 11.757 20.6726 11.0167 20.5587 10.675L20.5017 10.6181C20.4448 10.5611 20.3878 10.5042 20.2739 10.5042C20.16 10.4472 19.9892 10.4472 19.8184 10.5042H17.6544C17.5974 10.5042 17.5974 10.5042 17.4835 10.5042C17.4266 10.5042 17.3696 10.5042 17.3696 10.5042H17.3127H17.2557L17.1988 10.5611C17.1418 10.6181 17.1418 10.6181 17.1418 10.675C16.914 11.3014 16.6293 11.8139 16.3446 12.3834C16.1737 12.6682 16.0029 12.9529 15.832 13.1807C15.6612 13.4085 15.5473 13.5793 15.4334 13.6932C15.3195 13.8071 15.2056 13.8641 15.1487 13.9779C15.0917 14.0349 14.9778 14.0918 14.9778 14.0349C14.9209 14.0349 14.8639 14.0349 14.8639 13.9779C14.807 13.921 14.75 13.864 14.6931 13.8071C14.6362 13.7502 14.6361 13.6363 14.5792 13.5224C14.5792 13.4085 14.5792 13.2946 14.5792 13.2376C14.5792 13.1807 14.5792 13.0098 14.5792 12.896C14.5792 12.7251 14.5792 12.6112 14.5792 12.5543C14.5792 12.3834 14.5792 12.1556 14.5792 11.9278C14.5792 11.7001 14.5792 11.5292 14.5792 11.4153C14.5792 11.3014 14.5792 11.1306 14.5792 11.0167C14.5792 10.8458 14.5792 10.7319 14.5792 10.675C14.5792 10.6181 14.5223 10.5042 14.5223 10.4472C14.4653 10.3903 14.4084 10.3333 14.3514 10.2764C14.2945 10.2194 14.1806 10.2194 14.1236 10.1625C13.8389 10.1055 13.4972 10.0486 13.0986 10.0486C12.1874 10.0486 11.561 10.1055 11.3332 10.2194C11.2193 10.2764 11.1054 10.3333 11.0485 10.4472C10.9346 10.5611 10.9346 10.6181 10.9915 10.6181C11.2763 10.675 11.5041 10.7889 11.6179 10.9597L11.6749 11.0736C11.7318 11.1306 11.7318 11.2445 11.7888 11.4153C11.8457 11.5862 11.8457 11.757 11.8457 11.9848C11.8457 12.3265 11.8457 12.6682 11.8457 12.896C11.8457 13.1807 11.7888 13.3515 11.7888 13.5224C11.7888 13.6932 11.7318 13.8071 11.6749 13.8641C11.6179 13.9779 11.6179 14.0349 11.561 14.0349C11.561 14.0349 11.561 14.0918 11.504 14.0918C11.4471 14.0918 11.3902 14.1488 11.2763 14.1488C11.2193 14.1488 11.1054 14.0918 11.0485 14.0349C10.9346 13.9779 10.8207 13.8641 10.7637 13.7502C10.6498 13.6363 10.5359 13.4654 10.422 13.2376C10.3082 13.0098 10.1373 12.7821 10.0234 12.4404L9.90953 12.2126C9.85258 12.0987 9.73868 11.8709 9.62479 11.5862C9.5109 11.3014 9.397 11.0736 9.2831 10.7889C9.22616 10.675 9.16921 10.6181 9.11227 10.5611H9.05532C9.05532 10.5611 8.99836 10.5042 8.94142 10.5042C8.88447 10.5042 8.82753 10.4472 8.77058 10.4472H6.72047C6.49268 10.4472 6.37879 10.5042 6.32184 10.5611L6.26489 10.6181C6.26489 10.6181 6.26489 10.675 6.26489 10.732C6.26489 10.7889 6.2649 10.8458 6.32184 10.9597C6.60658 11.6431 6.94826 12.3265 7.28995 13.0098C7.63163 13.6363 7.97332 14.2057 8.20111 14.6044C8.48584 15.003 8.71363 15.4016 8.99837 15.7433C9.2831 16.085 9.45394 16.3128 9.51089 16.4267C9.62478 16.5406 9.68173 16.5975 9.73867 16.6545L9.90953 16.8253C10.0234 16.9392 10.1943 17.1101 10.422 17.2809C10.6498 17.4517 10.9346 17.6226 11.2193 17.7934C11.504 17.9643 11.8457 18.0782 12.1874 18.1921C12.5861 18.3059 12.9277 18.3629 13.2694 18.3059H14.1236C14.2945 18.3059 14.4084 18.249 14.5223 18.1351L14.5792 18.0782C14.5792 18.0212 14.6361 18.0212 14.6361 17.9643C14.6361 17.9073 14.6361 17.8504 14.6361 17.7365C14.6361 17.5087 14.6362 17.3378 14.6931 17.167C14.75 16.9962 14.7501 16.8823 14.807 16.7684C14.8639 16.6545 14.9209 16.5975 14.9778 16.5406C15.0348 16.4836 15.0917 16.4267 15.0917 16.4267H15.1487C15.2626 16.3697 15.4334 16.4267 15.5473 16.5406C15.7182 16.6545 15.889 16.8253 16.0029 16.9962C16.1168 17.167 16.2876 17.3378 16.5154 17.5656C16.7432 17.7934 16.914 17.9643 17.0279 18.0212L17.1988 18.1351C17.3127 18.192 17.4266 18.249 17.5974 18.3059C17.7683 18.3629 17.8821 18.3629 17.996 18.3629L19.9323 18.3059C20.1031 18.3059 20.2739 18.249 20.3878 18.1921C20.5017 18.1351 20.5587 18.0782 20.5587 17.9643C20.5587 17.9073 20.5587 17.7934 20.5587 17.7365C20.4448 17.6226 20.4448 17.5656 20.4448 17.5087Z" fill="#9B9DA6"/>
</svg>
