<svg width="26" height="26" viewBox="0 0 26 26" fill="none" xmlns="http://www.w3.org/2000/svg">
<path d="M22.1367 3.77567C19.6942 1.34233 16.445 0.00138855 12.9869 0C9.53656 0 6.2822 1.33975 3.82367 3.77249C1.36078 6.2094 0.00317383 9.44789 0 12.8796V12.8836V12.8859C0.000396729 14.963 0.546097 17.0583 1.58195 18.971L0.0355072 26L7.14548 24.3827C8.94623 25.2903 10.9555 25.7687 12.9819 25.7695H12.9871C16.4369 25.7695 19.6912 24.4296 22.1501 21.9966C24.6152 19.5577 25.9734 16.3234 25.975 12.8895C25.976 9.47983 24.613 6.24312 22.1367 3.77567ZM12.9869 23.7402H12.9823C11.1628 23.7394 9.35982 23.2826 7.76874 22.4187L7.43251 22.2362L2.7047 23.3116L3.73163 18.6445L3.53366 18.3031C2.54938 16.6057 2.02927 14.7319 2.02927 12.8838C2.03304 6.90169 6.9481 2.02927 12.9865 2.02927C15.9037 2.03046 18.6447 3.16133 20.7045 5.21321C22.7954 7.29683 23.9465 10.0228 23.9455 12.8889C23.9432 18.8724 19.0271 23.7402 12.9869 23.7402Z" fill="#1B1C1F"/>
<path d="M9.45308 7.2041H8.88377C8.68561 7.2041 8.36386 7.27829 8.09171 7.57445C7.81935 7.8708 7.05188 8.5871 7.05188 10.0439C7.05188 11.5007 8.1165 12.9083 8.26488 13.106C8.41345 13.3036 10.3199 16.3886 13.3394 17.5754C15.8489 18.5616 16.3597 18.3655 16.9042 18.3161C17.4489 18.2669 18.6619 17.6 18.9095 16.9087C19.1571 16.2174 19.1571 15.6247 19.0829 15.5009C19.0085 15.3775 18.8103 15.3035 18.5134 15.1555C18.2162 15.0074 16.7602 14.279 16.4879 14.18C16.2155 14.0814 16.0175 14.032 15.8194 14.3286C15.6212 14.6245 15.0378 15.3093 14.8645 15.5068C14.6913 15.7046 14.5179 15.7294 14.2208 15.5812C13.9236 15.4326 12.9766 15.1145 11.8418 14.106C10.9585 13.3211 10.3455 12.3201 10.1721 12.0238C9.99898 11.7276 10.1537 11.5673 10.3027 11.4195C10.4362 11.287 10.6165 11.1057 10.7651 10.933C10.9134 10.76 10.9557 10.6366 11.0549 10.439C11.1539 10.2415 11.1043 10.0685 11.0301 9.9205C10.9557 9.77232 10.3856 8.3082 10.1214 7.72263H10.1216C9.899 7.22949 9.66473 7.21283 9.45308 7.2041Z" fill="#1B1C1F"/>
</svg>
